<?xml version="1.0" encoding="UTF-8" standalone="no"?>
<!-- Created with Inkscape (http://www.inkscape.org/) -->

<svg
   xmlns:dc="http://purl.org/dc/elements/1.1/"
   xmlns:cc="http://creativecommons.org/ns#"
   xmlns:rdf="http://www.w3.org/1999/02/22-rdf-syntax-ns#"
   xmlns:svg="http://www.w3.org/2000/svg"
   xmlns="http://www.w3.org/2000/svg"
   xmlns:sodipodi="http://sodipodi.sourceforge.net/DTD/sodipodi-0.dtd"
   xmlns:inkscape="http://www.inkscape.org/namespaces/inkscape"
   width="7mm"
   height="5mm"
   viewBox="0 0 7 5"
   version="1.1"
   id="svg2871"
   sodipodi:docname="meeple-hair-mohawk.svg"
   inkscape:version="0.92.3 (2405546, 2018-03-11)">
  <defs
     id="defs2865" />
  <sodipodi:namedview
     id="base"
     pagecolor="#ffffff"
     bordercolor="#666666"
     borderopacity="1.0"
     inkscape:pageopacity="0.0"
     inkscape:pageshadow="2"
     inkscape:zoom="22.4"
     inkscape:cx="-4.1836008"
     inkscape:cy="7.250139"
     inkscape:document-units="mm"
     inkscape:current-layer="layer1"
     showgrid="false"
     inkscape:window-width="1920"
     inkscape:window-height="1025"
     inkscape:window-x="0"
     inkscape:window-y="27"
     inkscape:window-maximized="1"
     showguides="false" />
  <metadata
     id="metadata2868">
    <rdf:RDF>
      <cc:Work
         rdf:about="">
        <dc:format>image/svg+xml</dc:format>
        <dc:type
           rdf:resource="http://purl.org/dc/dcmitype/StillImage" />
        <dc:title></dc:title>
      </cc:Work>
    </rdf:RDF>
  </metadata>
  <g
     inkscape:label="Layer 1"
     inkscape:groupmode="layer"
     id="layer1"
     transform="translate(0,-292)">
    <path
       style="opacity:1;vector-effect:none;fill:#48c52a;fill-opacity:1;fill-rule:evenodd;stroke:none;stroke-width:0.65232748;stroke-linecap:round;stroke-linejoin:round;stroke-miterlimit:4;stroke-dasharray:none;stroke-dashoffset:0;stroke-opacity:1;marker:none"
       d="m 3.1135013,292.339 c -0.028923,-0.004 -0.065468,-0.003 -0.1116346,0.004 -0.3575663,0.0591 0.028013,0.17726 -0.3324099,0.2775 v 1.73353 l 0.7072283,0.33848 0.946713,-0.21033 v -2.0875 c -0.2021772,0.0102 -0.2857704,0.31407 -0.5974645,0.20619 -0.5553375,0.0482 -0.4099665,-0.23203 -0.6124323,-0.262 z"
       id="path854"
       inkscape:connector-curvature="0"
       sodipodi:nodetypes="scccccccs" />
    <path
       style="fill:#a5ce21;fill-rule:evenodd;stroke:none;stroke-width:2.46548972;stroke-linecap:round;stroke-linejoin:round;stroke-opacity:1;font-variant-east_asian:normal;opacity:1;vector-effect:none;fill-opacity:1;stroke-miterlimit:4;stroke-dasharray:none;stroke-dashoffset:0;marker:none"
       d="M 11.767578 1.28125 C 11.658263 1.2661319 11.520191 1.2704183 11.345703 1.296875 C 9.9942714 1.5202451 11.452072 1.9668433 10.089844 2.3457031 L 10.089844 4.5097656 L 12.365234 5.7734375 L 14.822266 5.7734375 L 16.339844 5.3417969 L 16.339844 1.4921875 C 15.575709 1.5307387 15.260088 2.6792198 14.082031 2.2714844 C 11.983118 2.4536576 12.532803 1.3945224 11.767578 1.28125 z "
       transform="matrix(0.26458333,0,0,0.26458333,0,292)"
       id="path1984" />
    <path
       style="fill:#d5d51a;fill-rule:evenodd;stroke:none;stroke-width:2.46548972;stroke-linecap:round;stroke-linejoin:round;stroke-opacity:1;font-variant-east_asian:normal;opacity:1;vector-effect:none;fill-opacity:1;stroke-miterlimit:4;stroke-dasharray:none;stroke-dashoffset:0;marker:none"
       d="M 11.767578 1.28125 C 11.658263 1.2661319 11.520191 1.2704183 11.345703 1.296875 C 9.9942715 1.5202451 11.452072 1.9668433 10.089844 2.3457031 L 10.089844 3.3066406 L 11.740234 4.0761719 L 14.285156 4.34375 L 16.339844 3.6054688 L 16.339844 1.4921875 C 15.575709 1.5307387 15.260088 2.6792198 14.082031 2.2714844 C 11.983118 2.4536576 12.532803 1.3945224 11.767578 1.28125 z "
       transform="matrix(0.26458333,0,0,0.26458333,0,292)"
       id="path2004" />
  </g>
</svg>
