<?xml version="1.0" encoding="UTF-8" standalone="no"?>
<!-- Created with Inkscape (http://www.inkscape.org/) -->

<svg
   xmlns:dc="http://purl.org/dc/elements/1.1/"
   xmlns:cc="http://creativecommons.org/ns#"
   xmlns:rdf="http://www.w3.org/1999/02/22-rdf-syntax-ns#"
   xmlns:svg="http://www.w3.org/2000/svg"
   xmlns="http://www.w3.org/2000/svg"
   xmlns:sodipodi="http://sodipodi.sourceforge.net/DTD/sodipodi-0.dtd"
   xmlns:inkscape="http://www.inkscape.org/namespaces/inkscape"
   width="19"
   height="14"
   viewBox="0 0 5.0270833 3.7041668"
   version="1.1"
   id="svg3590"
   inkscape:version="0.92.3 (2405546, 2018-03-11)"
   sodipodi:docname="meeple-worker.svg">
  <defs
     id="defs3584" />
  <sodipodi:namedview
     id="base"
     pagecolor="#ffffff"
     bordercolor="#666666"
     borderopacity="1.0"
     inkscape:pageopacity="0.0"
     inkscape:pageshadow="2"
     inkscape:zoom="44.8"
     inkscape:cx="2.8379447"
     inkscape:cy="9.084161"
     inkscape:document-units="px"
     inkscape:current-layer="layer1"
     showgrid="false"
     inkscape:window-width="1920"
     inkscape:window-height="1025"
     inkscape:window-x="0"
     inkscape:window-y="27"
     inkscape:window-maximized="1"
     inkscape:measure-start="0,0"
     inkscape:measure-end="0,0"
     units="px"
     inkscape:snap-global="false" />
  <metadata
     id="metadata3587">
    <rdf:RDF>
      <cc:Work
         rdf:about="">
        <dc:format>image/svg+xml</dc:format>
        <dc:type
           rdf:resource="http://purl.org/dc/dcmitype/StillImage" />
        <dc:title></dc:title>
      </cc:Work>
    </rdf:RDF>
  </metadata>
  <g
     inkscape:label="Layer 1"
     inkscape:groupmode="layer"
     id="layer1"
     transform="translate(0,-293.29581)">
    <path
       style="color:#000000;clip-rule:nonzero;display:inline;overflow:visible;visibility:visible;opacity:1;isolation:auto;mix-blend-mode:normal;color-interpolation:sRGB;color-interpolation-filters:linearRGB;solid-color:#000000;solid-opacity:1;vector-effect:none;fill:#3d3d3d;fill-opacity:1;fill-rule:evenodd;stroke:none;stroke-width:0.25135416;stroke-linecap:butt;stroke-linejoin:miter;stroke-miterlimit:4;stroke-dasharray:none;stroke-dashoffset:0;stroke-opacity:1;marker:none;paint-order:normal;color-rendering:auto;image-rendering:auto;shape-rendering:auto;text-rendering:auto;enable-background:accumulate"
       d="m 2.4831268,293.4516 c -0.7885801,-10e-4 -1.6248431,0.21933 -2.1005276,0.87433 -0.2076735,0.28841 -0.3185198,0.65059 -0.281756,1.00617 0.6367853,0.12026 1.2840134,0.17141 1.9315032,0.17691 0.651973,0.0107 1.3081658,0.0193 1.9560651,-0.0635 0.2978716,-0.0474 0.5917038,-0.11859 0.8806161,-0.20483 0.029994,-0.65244 -0.4293388,-1.22291 -0.9800301,-1.52141 -0.4270963,-0.23802 -0.9185601,-0.26757 -1.4058707,-0.26763 z m 2.3859008,1.78904 c 2e-7,-9e-5 0,0 0,0 z m -4.7681845,0.0915 c 0.1827869,0.0784 0,0 0,0 z m 0.1483114,0.51212 c 0.2789548,0.57207 0.9172381,0.84864 1.515169,0.94299 0.7247133,0.10495 1.496623,0.0817 2.1744516,-0.21974 0.3215447,-0.14794 0.6097836,-0.38871 0.769022,-0.7093 -1.1496196,0.21712 -2.3312352,0.24565 -3.4950028,0.14336 -0.3239191,-0.0325 -0.6477333,-0.0771 -0.9636398,-0.15731 z"
       id="path900"
       inkscape:connector-curvature="0"
       sodipodi:nodetypes="ccccccccccccccccccc" />
    <path
       style="opacity:1;vector-effect:none;fill:#000000;fill-opacity:1;fill-rule:evenodd;stroke:none;stroke-width:0.25135416;stroke-linecap:butt;stroke-linejoin:miter;stroke-miterlimit:4;stroke-dasharray:none;stroke-dashoffset:0;stroke-opacity:1;marker:none;paint-order:normal"
       d="m 0.1008431,295.3321 c 0.021597,0.17069 0.043193,0.34139 0.06479,0.51208 0.9382162,0.21611 1.9089797,0.22765 2.8669107,0.20234 0.5896134,-0.0214 1.1791929,-0.0757 1.7587754,-0.18844 0.025903,-0.20584 0.051806,-0.41169 0.077709,-0.61753 -0.5446421,0.16933 -1.1126184,0.26279 -1.683368,0.26487 -0.754348,0.0208 -1.5111911,0.0132 -2.2630556,-0.0546 -0.2752228,-0.0297 -0.5492839,-0.0701 -0.8217611,-0.11868 z"
       id="path908"
       inkscape:connector-curvature="0" />
    <path
       style="color:#000000;clip-rule:nonzero;display:inline;overflow:visible;visibility:visible;opacity:1;isolation:auto;mix-blend-mode:normal;color-interpolation:sRGB;color-interpolation-filters:linearRGB;solid-color:#000000;solid-opacity:1;vector-effect:none;fill:#d74545;fill-opacity:1;fill-rule:evenodd;stroke:none;stroke-width:0.31701985;stroke-linecap:butt;stroke-linejoin:miter;stroke-miterlimit:4;stroke-dasharray:none;stroke-dashoffset:0;stroke-opacity:1;marker:none;paint-order:normal;color-rendering:auto;image-rendering:auto;shape-rendering:auto;text-rendering:auto;enable-background:accumulate"
       inkscape:transform-center-x="-0.011373006"
       inkscape:transform-center-y="-0.076309472"
       d="m 2.9987973,295.31477 -0.5208703,-0.37441 -0.5517131,0.33114 0.2320721,-0.58477 -0.5223706,-0.44868 0.6411061,0.0856 0.2402512,-0.58655 0.1780563,0.62706 0.6760629,-0.0561 -0.5274113,0.40303 z"
       id="path926"
       inkscape:connector-curvature="0"
       sodipodi:nodetypes="ccccccccccc" />
    <path
       style="opacity:1;vector-effect:none;fill:#16161d;fill-opacity:0.56349206;fill-rule:evenodd;stroke:none;stroke-width:0.25135416;stroke-linecap:butt;stroke-linejoin:miter;stroke-miterlimit:4;stroke-dasharray:none;stroke-dashoffset:0;stroke-opacity:1;marker:none;paint-order:normal"
       d="m 0.11693042,295.33789 c 0,0 1.77716018,0.0656 2.62908188,-0.0847 0.8519216,-0.15034 1.595091,-0.46957 1.595091,-0.46957 l 0.3626031,-0.29232 0.1405539,0.39559 0.041761,0.24221 -0.041761,0.12528 c 0,0 -0.6514695,0.1754 -0.8769781,0.20881 -0.2255086,0.0334 -1.6453781,0.0418 -1.7623085,0.0585 -0.1169305,0.0167 -1.1024869,-0.0668 -1.21941729,-0.0585 -0.11693042,0.008 -0.86862599,-0.12529 -0.86862599,-0.12529 z"
       id="path5002"
       inkscape:connector-curvature="0"
       sodipodi:nodetypes="ccccccccsccc" />
  </g>
</svg>
