<?xml version="1.0" encoding="UTF-8" standalone="no"?>
<!-- Created with Inkscape (http://www.inkscape.org/) -->

<svg
   xmlns:dc="http://purl.org/dc/elements/1.1/"
   xmlns:cc="http://creativecommons.org/ns#"
   xmlns:rdf="http://www.w3.org/1999/02/22-rdf-syntax-ns#"
   xmlns:svg="http://www.w3.org/2000/svg"
   xmlns="http://www.w3.org/2000/svg"
   xmlns:sodipodi="http://sodipodi.sourceforge.net/DTD/sodipodi-0.dtd"
   xmlns:inkscape="http://www.inkscape.org/namespaces/inkscape"
   width="7mm"
   height="5mm"
   viewBox="0 0 7 5"
   version="1.1"
   id="svg2871"
   sodipodi:docname="meeple-hair-purple.svg"
   inkscape:version="0.92.3 (2405546, 2018-03-11)">
  <defs
     id="defs2865" />
  <sodipodi:namedview
     id="base"
     pagecolor="#ffffff"
     bordercolor="#666666"
     borderopacity="1.0"
     inkscape:pageopacity="0.0"
     inkscape:pageshadow="2"
     inkscape:zoom="31.678384"
     inkscape:cx="7.1277808"
     inkscape:cy="10.447937"
     inkscape:document-units="mm"
     inkscape:current-layer="layer1"
     showgrid="false"
     inkscape:window-width="1920"
     inkscape:window-height="1025"
     inkscape:window-x="0"
     inkscape:window-y="27"
     inkscape:window-maximized="1"
     showguides="false"
     inkscape:snap-global="false" />
  <metadata
     id="metadata2868">
    <rdf:RDF>
      <cc:Work
         rdf:about="">
        <dc:format>image/svg+xml</dc:format>
        <dc:type
           rdf:resource="http://purl.org/dc/dcmitype/StillImage" />
        <dc:title />
      </cc:Work>
    </rdf:RDF>
  </metadata>
  <g
     inkscape:label="Layer 1"
     inkscape:groupmode="layer"
     id="layer1"
     transform="translate(0,-292)">
    <path
       style="fill:#a92ac5;fill-opacity:1;fill-rule:evenodd;stroke:none;stroke-width:0.59379792;stroke-linecap:round;stroke-linejoin:round;stroke-opacity:1;font-variant-east_asian:normal;opacity:1;vector-effect:none;stroke-miterlimit:4;stroke-dasharray:none;stroke-dashoffset:0;marker:none"
       d="m 3.0868367,292.34293 c -0.30603,0.061 0.0507,0.18556 -0.30156,0.28777 -0.2913,0.11846 -0.72442,-0.0946 -0.93695,0.0259 -0.21254,0.12044 0.2971,0.37198 -0.40295,0.5513 -0.26545,0.14946 -0.40124,0.45913 -0.62772004,0.62748 -0.25391,0.18889 -0.0297,0.28045 -0.22544,0.76064 -0.10053004,0.26392 -0.17984004,0.56262 -0.067,0.83609 0.072,0.342 0.13544004,0.72524 0.40400004,0.97343 0.25459,0.19548 0.41733,-0.14195 0.30927,-0.3522 0.0447,-0.41912 0.29878,-0.77294 0.49606,-1.13253 0.15568,-0.22702 0.2029,-0.36107 0.46616,-0.3956 0.0965,0.12717 0.47408,0.23247 0.6266,0.0195 0.15356,-0.30119 0.4732,0.0169 0.60488,0.17784 -0.015,0.18531 0.16639,0.28991 0.28539,0.0302 -0.0222,-0.3406 0.33207,-0.24113 0.49171,-0.0804 0.18371,0.18586 0.40335,0.40175 0.69041,0.1645 0.36187,-0.11467 0.46339,0.34543 0.69762,0.53308 0.16405,0.27229 0.37111,0.54696 0.28298,0.87487 -0.0635,0.33863 0.38776,0.55361 0.59934,0.28143 0.196,-0.26286 0.0954,-0.61144 0.10301,-0.91463 -0.015,-0.30883 -0.071,-0.61603 -0.16967,-0.90837 -0.0493,-0.14617 -0.10928,-0.28862 -0.18008,-0.42572 -0.0708,-0.1371 -0.17549,-0.19393 -0.17546,-0.37366 4e-5,-0.17973 0.0567,-0.31896 -0.10794,-0.45654 -0.16463,-0.13758 -0.57175,-0.08 -0.45877,-0.40411 0.0277,-0.13562 -0.0491,-0.28322 -0.23971,-0.29499 -0.23695,0.14653 -0.49874,0.22382 -0.68841,-0.0597 -0.13505,-0.0946 -0.0366,-0.13716 -0.28385,-0.27137 -0.24728,-0.13421 -0.28899,0.3105 -0.59215,0.18387 -0.52589,0.0551 -0.2937,-0.319 -0.59973,-0.25798 z"
       id="path854"
       inkscape:connector-curvature="0"
       sodipodi:nodetypes="cczcccccccccccccccccsszzccczczc" />
    <path
       style="fill:#aec7ff;fill-rule:evenodd;stroke:none;stroke-width:0.59379792;stroke-linecap:round;stroke-linejoin:round;stroke-opacity:1;font-variant-east_asian:normal;opacity:1;vector-effect:none;fill-opacity:0.75294119;stroke-miterlimit:4;stroke-dasharray:none;stroke-dashoffset:0;marker:none"
       d="m 1.8124214,292.69028 0.1753957,-0.0668 0.3424391,0.0501 0.4259607,0.32574 -0.3674955,-0.12528 -0.2589174,-0.14199 z"
       id="path6329"
       inkscape:connector-curvature="0" />
    <path
       style="fill:#aec7ff;fill-rule:evenodd;stroke:none;stroke-width:0.59379792;stroke-linecap:round;stroke-linejoin:round;stroke-opacity:1;font-variant-east_asian:normal;opacity:1;vector-effect:none;fill-opacity:0.75294119;stroke-miterlimit:4;stroke-dasharray:none;stroke-dashoffset:0;marker:none"
       d="m 2.6309344,293.22482 -0.8435695,0.23386 -1.06907804,0.67652 0.97720414,-0.53453 0.4760739,-0.1921 z"
       id="path6345"
       inkscape:connector-curvature="0" />
    <path
       style="fill:#aec7ff;fill-rule:evenodd;stroke:none;stroke-width:0.59379792;stroke-linecap:round;stroke-linejoin:round;stroke-opacity:1;font-variant-east_asian:normal;opacity:1;vector-effect:none;fill-opacity:0.75294119;stroke-miterlimit:4;stroke-dasharray:none;stroke-dashoffset:0;marker:none"
       d="m 3.0568953,293.86794 0.100226,0.37584 0.2750653,0.47877 -0.3001219,-0.29502 -0.075169,-0.0167 z"
       id="path6361"
       inkscape:connector-curvature="0" />
    <path
       style="fill:#aec7ff;fill-rule:evenodd;stroke:none;stroke-width:0.59379792;stroke-linecap:round;stroke-linejoin:round;stroke-opacity:1;font-variant-east_asian:normal;opacity:1;vector-effect:none;fill-opacity:0.75294119;stroke-miterlimit:4;stroke-dasharray:none;stroke-dashoffset:0;marker:none"
       d="m 2.5891735,293.9431 -0.2589173,0.37585 -0.1295495,0.20626 0.062732,-0.19791 z"
       id="path6368"
       inkscape:connector-curvature="0" />
    <path
       style="fill:#aec7ff;fill-rule:evenodd;stroke:none;stroke-width:0.59379792;stroke-linecap:round;stroke-linejoin:round;stroke-opacity:1;font-variant-east_asian:normal;opacity:1;vector-effect:none;fill-opacity:0.75294119;stroke-miterlimit:4;stroke-dasharray:none;stroke-dashoffset:0;marker:none"
       d="m 5.4907267,293.0432 -0.2539146,0.23173 -0.8769781,0.0919 -0.1586913,0.0167 0.4510175,0.0585 0.6347651,-0.0334 0.2505651,-0.0251 0.3507912,0.0167 -0.3841998,-0.11693 z"
       id="path6375"
       inkscape:connector-curvature="0" />
    <path
       style="fill:#aec7ff;fill-rule:evenodd;stroke:none;stroke-width:0.59379792;stroke-linecap:round;stroke-linejoin:round;stroke-opacity:1;font-variant-east_asian:normal;opacity:1;vector-effect:none;fill-opacity:0.75294119;stroke-miterlimit:4;stroke-dasharray:none;stroke-dashoffset:0;marker:none"
       d="m 5.5959557,294.36907 0.3006783,0.50948 0.1503389,0.86862 -0.200452,-0.84357 z"
       id="path6382"
       inkscape:connector-curvature="0" />
    <path
       style="fill:#aec7ff;fill-rule:evenodd;stroke:none;stroke-width:0.59379792;stroke-linecap:round;stroke-linejoin:round;stroke-opacity:1;font-variant-east_asian:normal;opacity:1;vector-effect:none;fill-opacity:0.75294119;stroke-miterlimit:4;stroke-dasharray:none;stroke-dashoffset:0;marker:none"
       d="m 4.2178472,293.84288 0.5261869,0.22551 0.5261867,0.7851 -0.6013564,-0.66817 z"
       id="path6389"
       inkscape:connector-curvature="0" />
    <path
       style="fill:#aec7ff;fill-rule:evenodd;stroke:none;stroke-width:0.59379792;stroke-linecap:round;stroke-linejoin:round;stroke-opacity:1;font-variant-east_asian:normal;opacity:1;vector-effect:none;fill-opacity:0.75294119;stroke-miterlimit:4;stroke-dasharray:none;stroke-dashoffset:0;marker:none"
       d="m 2.1047475,294.00157 -0.7683999,0.44267 -0.3340869,0.8018 -0.0584652,0.56795 0.2171565,-0.74334 0.292326,-0.60971 z"
       id="path6396"
       inkscape:connector-curvature="0" />
    <path
       style="opacity:1;vector-effect:none;fill:#aec7ff;fill-opacity:0.75294119;fill-rule:evenodd;stroke:none;stroke-width:0.59379792;stroke-linecap:round;stroke-linejoin:round;stroke-miterlimit:4;stroke-dasharray:none;stroke-dashoffset:0;stroke-opacity:1;marker:none"
       d="m 3.4243907,293.3501 0.041761,-0.3842 0.025056,0.41761 z"
       id="path6403"
       inkscape:connector-curvature="0" />
    <path
       inkscape:connector-curvature="0"
       id="path6410"
       d="m 3.6734923,293.43005 0.1940311,-0.33423 -0.1465129,0.39187 z"
       style="opacity:1;vector-effect:none;fill:#aec7ff;fill-opacity:0.75294119;fill-rule:evenodd;stroke:none;stroke-width:0.59379792;stroke-linecap:round;stroke-linejoin:round;stroke-miterlimit:4;stroke-dasharray:none;stroke-dashoffset:0;stroke-opacity:1;marker:none" />
  </g>
</svg>
