<?xml version="1.0" encoding="UTF-8" standalone="no"?>
<!-- Created with Inkscape (http://www.inkscape.org/) -->

<svg
   xmlns:dc="http://purl.org/dc/elements/1.1/"
   xmlns:cc="http://creativecommons.org/ns#"
   xmlns:rdf="http://www.w3.org/1999/02/22-rdf-syntax-ns#"
   xmlns:svg="http://www.w3.org/2000/svg"
   xmlns="http://www.w3.org/2000/svg"
   xmlns:sodipodi="http://sodipodi.sourceforge.net/DTD/sodipodi-0.dtd"
   xmlns:inkscape="http://www.inkscape.org/namespaces/inkscape"
   width="23"
   height="23"
   viewBox="0 0 6.0854167 6.085418"
   version="1.1"
   id="svg8"
   inkscape:version="0.92.3 (2405546, 2018-03-11)"
   sodipodi:docname="meeple-ares.svg"
   inkscape:export-filename="/home/sven/ideaprojects/pixgame/atlas/src/bunny.png"
   inkscape:export-xdpi="96"
   inkscape:export-ydpi="96">
  <defs
     id="defs2" />
  <sodipodi:namedview
     id="base"
     pagecolor="#808080"
     bordercolor="#666666"
     borderopacity="1.0"
     inkscape:pageopacity="0"
     inkscape:pageshadow="2"
     inkscape:zoom="18.47596"
     inkscape:cx="2.1591108"
     inkscape:cy="7.7326283"
     inkscape:document-units="mm"
     inkscape:current-layer="layer1"
     showgrid="false"
     inkscape:measure-start="0,0"
     inkscape:measure-end="0,0"
     units="px"
     inkscape:window-width="1920"
     inkscape:window-height="1025"
     inkscape:window-x="0"
     inkscape:window-y="27"
     inkscape:window-maximized="1"
     inkscape:snap-global="false" />
  <metadata
     id="metadata5">
    <rdf:RDF>
      <cc:Work
         rdf:about="">
        <dc:format>image/svg+xml</dc:format>
        <dc:type
           rdf:resource="http://purl.org/dc/dcmitype/StillImage" />
        <dc:title />
      </cc:Work>
    </rdf:RDF>
  </metadata>
  <g
     inkscape:label="Layer 1"
     inkscape:groupmode="layer"
     id="layer1"
     transform="translate(0,-290.9145)">
    <path
       style="opacity:1;vector-effect:none;fill:#000000;fill-opacity:0.76190479;fill-rule:evenodd;stroke:#ff1a1a;stroke-width:0.13567731;stroke-linecap:butt;stroke-linejoin:miter;stroke-miterlimit:4;stroke-dasharray:none;stroke-dashoffset:0;stroke-opacity:0.99603176"
       d="m 1.6844445,291.2599 c 0.4113215,0.97573 1.0267911,1.85829 1.7937726,2.58734 0.4104525,0.4294 0.7941059,0.91783 1.3532394,1.16001 0.3112863,0.18234 0.5890728,0.46247 0.3844397,0.73381 -0.5781042,0.77017 -1.5023884,1.14861 -2.4367782,1.04254 -0.6004332,-0.0381 -1.237153,-0.21647 -1.6264702,-0.70748 -0.39693728,-0.42745 -0.74932107,-0.94165 -0.85127984,-1.52419 -0.006288,-0.50826 -0.0994186,-1.05623 0.18299775,-1.51367 0.26797811,-0.53343 0.53777279,-1.07212 0.95916199,-1.50526 0.079685,-0.0916 0.16049,-0.18217 0.2409168,-0.2731 z"
       id="path2133"
       inkscape:connector-curvature="0"
       sodipodi:nodetypes="cccccccccc" />
    <path
       style="opacity:1;vector-effect:none;fill:#ff1a1a;fill-opacity:0.82539684;fill-rule:evenodd;stroke:#000000;stroke-width:0.13567731;stroke-linecap:butt;stroke-linejoin:miter;stroke-miterlimit:4;stroke-dasharray:none;stroke-dashoffset:0;stroke-opacity:1;font-variant-east_asian:normal"
       d="m 4.3901692,291.2599 c -0.6983842,1.26465 -1.6396221,2.39428 -2.7864284,3.27359 -0.4865849,0.33099 -1.35121014,0.88298 -0.5767129,1.42507 0.8590087,0.92313 2.3633037,1.09442 3.4466637,0.49421 1.0778698,-0.69502 1.6840605,-2.18582 1.1303676,-3.39186 -0.3157857,-0.65969 -0.6948589,-1.27901 -1.21389,-1.80101 z"
       id="path2135"
       inkscape:connector-curvature="0" />
    <path
       style="color:#000000;clip-rule:nonzero;display:inline;overflow:visible;visibility:visible;opacity:1;isolation:auto;mix-blend-mode:normal;color-interpolation:sRGB;color-interpolation-filters:linearRGB;solid-color:#000000;solid-opacity:1;vector-effect:none;fill:#000046;fill-opacity:0.16666667;fill-rule:evenodd;stroke:none;stroke-width:0.61139429;stroke-linecap:round;stroke-linejoin:round;stroke-miterlimit:4;stroke-dasharray:none;stroke-dashoffset:0;stroke-opacity:0.75294118;marker:none;color-rendering:auto;image-rendering:auto;shape-rendering:auto;text-rendering:auto;enable-background:accumulate"
       d="m 5.5183397,292.78296 c -0.5041001,1.87664 -2.0139778,3.17864 -3.9229058,3.1808 -0.1903184,-0.002 -0.3803017,-0.007 -0.5686613,-0.0345 0.5047733,0.54279 1.2116267,0.83418 1.9962076,0.83418 1.5327573,0 2.7944036,-1.05328 2.7755389,-3.00922 -0.00326,-0.3379 -0.2042981,-0.66349 -0.2801794,-0.97134 z"
       id="path829"
       inkscape:connector-curvature="0"
       sodipodi:nodetypes="cccsscc" />
    <path
       style="fill:#000000;fill-opacity:1;fill-rule:evenodd;stroke:none;stroke-width:0.26100379px;stroke-linecap:butt;stroke-linejoin:miter;stroke-opacity:1"
       d="m 0.27226366,293.90279 c -0.056215,0.004 -0.0447294,0.0484 -0.0505457,0.10451 l -0.0423112,0.39558 c 0.0454679,0.0312 0.0110793,0.076 0.0402721,0.10094 0,0 0.11289855,0.14283 0.47569639,0.29261 0.32246105,0.13312 0.80729965,0.26854 1.48436565,0.34715 l -0.343587,0.3548 c -0.040799,0.0421 -0.044069,0.10798 -0.00765,0.15395 l 0.040782,0.0515 0.1840281,0.24112 c 0.043105,0.0563 0.1259673,0.0616 0.1758717,0.0112 l 0.7096042,-0.71572 0.092779,0.13203 c 0.036454,0.0516 0.1073545,0.065 0.1600689,0.0301 l 0.1585392,-0.10451 0.7763846,0.50315 c 0.049126,0.0319 0.1142766,0.0225 0.1524219,-0.0219 l 0.042821,-0.0494 0.2018701,-0.22583 c 0.0472,-0.0529 0.036873,-0.13526 -0.021919,-0.17485 l -0.3665269,-0.24673 c 0.7883007,-0.13513 1.600271,-0.3283 1.600271,-0.3283 0.035937,-0.009 0.065265,-0.0353 0.079015,-0.0698 0,0 0.049562,-0.12307 0.084112,-0.26916 0.017276,-0.0731 0.031159,-0.15221 0.032625,-0.23093 0.00146,-0.0787 -0.00575,-0.1617 -0.060663,-0.23501 -0.031518,-0.042 -0.087188,-0.0579 -0.1361104,-0.0387 -0.4363571,0.16927 -1.3671437,0.53329 -2.4398673,0.58675 l -0.1932041,-0.15293 c -0.030803,-0.0244 -0.071782,-0.0317 -0.1090913,-0.0194 l -0.02141,-0.026 c -0.037352,-0.0458 -0.1029626,-0.0565 -0.1529318,-0.025 l -0.056075,0.0352 c -0.00618,0.004 -0.01198,0.008 -0.017333,0.0133 l -0.1824983,0.16975 c -0.1796821,-0.0109 -0.2415807,-0.0298 -0.4511492,-0.10144 -0.2470214,-0.0844 -0.6772249,-0.23099 -1.80348356,-0.48531 -0.011528,-0.003 -0.0233877,-0.003 -0.0351743,-0.003 z"
       id="path823"
       inkscape:connector-curvature="0"
       sodipodi:nodetypes="ccccsccccccccccccccccccccccccccccccsccc" />
  </g>
</svg>
