<?xml version="1.0" encoding="UTF-8" standalone="no"?>
<!-- Created with Inkscape (http://www.inkscape.org/) -->

<svg
   xmlns:dc="http://purl.org/dc/elements/1.1/"
   xmlns:cc="http://creativecommons.org/ns#"
   xmlns:rdf="http://www.w3.org/1999/02/22-rdf-syntax-ns#"
   xmlns:svg="http://www.w3.org/2000/svg"
   xmlns="http://www.w3.org/2000/svg"
   xmlns:sodipodi="http://sodipodi.sourceforge.net/DTD/sodipodi-0.dtd"
   xmlns:inkscape="http://www.inkscape.org/namespaces/inkscape"
   width="23"
   height="23"
   viewBox="0 0 6.0854167 6.085418"
   version="1.1"
   id="svg8"
   inkscape:version="0.92.3 (2405546, 2018-03-11)"
   sodipodi:docname="meeple-demeter.svg"
   inkscape:export-filename="/home/sven/ideaprojects/pixgame/atlas/src/bunny.png"
   inkscape:export-xdpi="96"
   inkscape:export-ydpi="96">
  <defs
     id="defs2" />
  <sodipodi:namedview
     id="base"
     pagecolor="#808080"
     bordercolor="#666666"
     borderopacity="1.0"
     inkscape:pageopacity="0"
     inkscape:pageshadow="2"
     inkscape:zoom="18.47596"
     inkscape:cx="-5.5725178"
     inkscape:cy="5.4727258"
     inkscape:document-units="mm"
     inkscape:current-layer="layer1"
     showgrid="false"
     inkscape:measure-start="0,0"
     inkscape:measure-end="0,0"
     units="px"
     inkscape:window-width="1920"
     inkscape:window-height="1025"
     inkscape:window-x="0"
     inkscape:window-y="27"
     inkscape:window-maximized="1"
     inkscape:snap-global="false" />
  <metadata
     id="metadata5">
    <rdf:RDF>
      <cc:Work
         rdf:about="">
        <dc:format>image/svg+xml</dc:format>
        <dc:type
           rdf:resource="http://purl.org/dc/dcmitype/StillImage" />
        <dc:title />
      </cc:Work>
    </rdf:RDF>
  </metadata>
  <g
     inkscape:label="Layer 1"
     inkscape:groupmode="layer"
     id="layer1"
     transform="translate(0,-290.9145)">
    <path
       style="opacity:1;vector-effect:none;fill:#2f9572;fill-opacity:0.66269839;fill-rule:evenodd;stroke:#000000;stroke-width:0.13567731;stroke-linecap:butt;stroke-linejoin:miter;stroke-miterlimit:4;stroke-dasharray:none;stroke-dashoffset:0;stroke-opacity:0.75294118"
       d="m 1.6844445,291.2599 c 0.4113215,0.97573 1.0267911,1.85829 1.7937726,2.58734 0.4104525,0.4294 0.7941059,0.91783 1.3532394,1.16001 0.3112863,0.18234 0.8599449,0.38906 0.4072233,0.76166 -0.5375999,0.78536 -1.525172,1.12076 -2.4595618,1.01469 -0.6004332,-0.0381 -1.237153,-0.21647 -1.6264702,-0.70748 -0.39693728,-0.42745 -0.74932107,-0.94165 -0.85127984,-1.52419 -0.006288,-0.50826 -0.0994186,-1.05623 0.18299775,-1.51367 0.26797811,-0.53343 0.53777279,-1.07212 0.95916199,-1.50526 0.079685,-0.0916 0.16049,-0.18217 0.2409168,-0.2731 z"
       id="path2133"
       inkscape:connector-curvature="0"
       sodipodi:nodetypes="cccccccccc" />
    <path
       style="opacity:1;vector-effect:none;fill:#22af1e;fill-opacity:0.66269839;fill-rule:evenodd;stroke:#000000;stroke-width:0.13567731;stroke-linecap:butt;stroke-linejoin:miter;stroke-miterlimit:4;stroke-dasharray:none;stroke-dashoffset:0;stroke-opacity:0.75294118;font-variant-east_asian:normal"
       d="m 4.3901692,291.2599 c -0.6983842,1.26465 -1.6396221,2.39428 -2.7864284,3.27359 -0.4865849,0.33099 -1.35121014,0.88298 -0.5767129,1.42507 0.8590087,0.92313 2.3633037,1.09442 3.4466637,0.49421 1.0778698,-0.69502 1.6840605,-2.18582 1.1303676,-3.39186 -0.3157857,-0.65969 -0.6948589,-1.27901 -1.21389,-1.80101 z"
       id="path2135"
       inkscape:connector-curvature="0" />
    <path
       style="color:#000000;clip-rule:nonzero;display:inline;overflow:visible;visibility:visible;opacity:1;isolation:auto;mix-blend-mode:normal;color-interpolation:sRGB;color-interpolation-filters:linearRGB;solid-color:#000000;solid-opacity:1;vector-effect:none;fill:#000046;fill-opacity:0.16269842;fill-rule:evenodd;stroke:none;stroke-width:0.61139429;stroke-linecap:round;stroke-linejoin:round;stroke-miterlimit:4;stroke-dasharray:none;stroke-dashoffset:0;stroke-opacity:0.75294118;marker:none;color-rendering:auto;image-rendering:auto;shape-rendering:auto;text-rendering:auto;enable-background:accumulate"
       d="m 5.5183397,292.78296 c -0.5041001,1.87664 -2.0139778,3.17864 -3.9229058,3.1808 -0.1903184,-0.002 -0.3803017,-0.007 -0.5686613,-0.0345 0.5047733,0.54279 1.2116267,0.83418 1.9962076,0.83418 1.5327573,0 2.7944036,-1.05328 2.7755389,-3.00922 -0.00326,-0.3379 -0.2042981,-0.66349 -0.2801794,-0.97134 z"
       id="path829"
       inkscape:connector-curvature="0"
       sodipodi:nodetypes="cccsscc" />
    <path
       style="fill:#f3c569;fill-opacity:1;stroke:#000000;stroke-width:0.08924797;stroke-miterlimit:4;stroke-dasharray:none;stroke-opacity:1"
       d="m 5.4068683,292.05139 c -0.01106,-0.0119 -0.01994,-0.0133 -0.02601,-0.0151 -0.0063,-0.001 -0.01144,-0.002 -0.0163,-0.003 -0.01021,-6.6e-4 -0.02033,-5.7e-4 -0.03203,1.4e-4 -0.02344,10e-4 -0.05217,0.005 -0.08363,0.0102 -0.06288,0.0101 -0.135274,0.0258 -0.188687,0.0434 -0.321178,0.10571 -0.503217,0.33625 -0.557415,0.70109 l -0.01825,0.12318 a 0.04500808,0.04500808 0 0 0 0.0478,0.0516 l 0.07875,-0.006 c 0.368127,-0.0275 0.64527,-0.23106 0.754522,-0.55838 0.01519,-0.0455 0.03024,-0.11792 0.04129,-0.18362 0.0055,-0.0328 0.0099,-0.0635 0.01222,-0.0879 0.0012,-0.0123 0.002,-0.0228 0.0019,-0.0326 -7.6e-5,-0.005 -1.31e-4,-0.01 -0.0012,-0.0153 -10e-4,-0.006 8.77e-4,-0.0132 -0.01298,-0.0281 z m -1.364844,0.0479 a 0.04500808,0.04500808 0 0 0 -0.06678,0.003 l -0.05865,0.0721 c -0.13795,0.16945 -0.209587,0.35097 -0.21015,0.53641 -5.59e-4,0.18543 0.0697,0.37247 0.205975,0.55413 0.02848,0.038 0.05633,0.0753 0.05766,0.0772 0.0099,0.0137 0.03376,0.0228 0.04844,0.0208 0.01469,-0.002 0.02239,-0.007 0.02923,-0.0121 0.01362,-0.01 0.02351,-0.0206 0.03493,-0.0343 0.02283,-0.0275 0.04863,-0.0658 0.07534,-0.10977 0.05342,-0.0879 0.108892,-0.19594 0.13399,-0.27661 0.04488,-0.1443 0.04523,-0.27687 9.45e-4,-0.41919 -0.04037,-0.12967 -0.126873,-0.28798 -0.205751,-0.36686 z m 1.272739,1.27274 c -0.128281,-0.12828 -0.380561,-0.23603 -0.562109,-0.24003 -0.181885,-0.004 -0.420217,0.0907 -0.577314,0.22409 l -0.05731,0.0486 a 0.04500808,0.04500808 0 0 0 -0.0027,0.0662 l 0.03942,0.0394 c 0.121143,0.12114 0.350515,0.22713 0.524476,0.24324 0.193825,0.0179 0.426545,-0.0655 0.604287,-0.21022 l 0.07296,-0.0594 a 0.04500808,0.04500808 0 0 0 0.0034,-0.0668 z m -0.510319,0.59871 a 0.04500808,0.04500808 0 0 0 -0.0038,-0.003 l -0.05095,-0.0378 a 0.04500808,0.04500808 0 0 0 -7.6e-5,-8e-5 c -0.163418,-0.12115 -0.306617,-0.19573 -0.448619,-0.22341 -0.141997,-0.0277 -0.280796,-0.007 -0.427673,0.0559 -0.08842,0.0377 -0.16603,0.0851 -0.272892,0.16603 l -0.0489,0.037 a 0.04500808,0.04500808 0 0 0 -0.0047,0.0677 l 0.04397,0.044 c 0.116104,0.11612 0.342265,0.22018 0.516425,0.24056 0.195329,0.0229 0.436214,-0.0641 0.618152,-0.21514 l 0.07713,-0.064 a 0.04500808,0.04500808 0 0 0 0.002,-0.0677 z m -1.316885,-1.31594 a 0.04500808,0.04500808 0 0 0 -0.06717,0.003 l -0.06371,0.0768 c -0.03894,0.047 -0.09147,0.12786 -0.123405,0.18929 -0.134854,0.25939 -0.12261,0.51793 0.0351,0.78701 0.03262,0.0556 0.07718,0.11916 0.110084,0.15282 l 0.04759,0.0486 a 0.04500808,0.04500808 0 0 0 0.06805,-0.004 l 0.03704,-0.0489 c 0.215722,-0.28486 0.278571,-0.5363 0.192334,-0.79833 -0.03503,-0.1064 -0.114502,-0.25109 -0.189505,-0.34675 l -7.4e-5,-7e-5 -0.04327,-0.0554 a 0.04500808,0.04500808 0 0 0 -0.003,-0.003 z m 0.752808,1.88016 a 0.04500808,0.04500808 0 0 0 -0.0035,-0.003 l -0.05635,-0.0426 c -0.196578,-0.14878 -0.384216,-0.22697 -0.572766,-0.22774 -0.188549,-6.7e-4 -0.373598,0.0761 -0.564196,0.22364 l -0.06148,0.0476 a 0.04500808,0.04500808 0 0 0 -0.0011,0.0702 l 0.07176,0.0596 c 0.221685,0.18381 0.507337,0.26312 0.741482,0.19733 0.121039,-0.034 0.267686,-0.11099 0.364629,-0.19144 l 0.07959,-0.0661 a 0.04500808,0.04500808 0 0 0 0.002,-0.0677 z m -1.316886,-1.31593 a 0.04500808,0.04500808 0 0 0 -0.06727,0.002 l -0.06573,0.0793 c -0.08072,0.0973 -0.163819,0.25448 -0.193755,0.36918 -0.05358,0.20529 -0.0075,0.42854 0.126684,0.63849 0.02777,0.0435 0.06673,0.0954 0.09466,0.12443 a 0.04500808,0.04500808 0 0 0 7.4e-5,8e-5 l 0.04175,0.0436 a 0.04500808,0.04500808 0 0 0 0.0679,-0.003 l 0.04188,-0.0538 7.7e-5,-9e-5 c 0.148854,-0.1907 0.227026,-0.37804 0.227733,-0.56739 6.75e-4,-0.18939 -0.0761,-0.37682 -0.223636,-0.56748 l -0.04755,-0.0614 a 0.04500808,0.04500808 0 0 0 -0.003,-0.003 z"
       id="path2855"
       inkscape:connector-curvature="0" />
  </g>
</svg>
