<?xml version="1.0" encoding="UTF-8" standalone="no"?>
<!-- Created with Inkscape (http://www.inkscape.org/) -->

<svg
   xmlns:dc="http://purl.org/dc/elements/1.1/"
   xmlns:cc="http://creativecommons.org/ns#"
   xmlns:rdf="http://www.w3.org/1999/02/22-rdf-syntax-ns#"
   xmlns:svg="http://www.w3.org/2000/svg"
   xmlns="http://www.w3.org/2000/svg"
   xmlns:sodipodi="http://sodipodi.sourceforge.net/DTD/sodipodi-0.dtd"
   xmlns:inkscape="http://www.inkscape.org/namespaces/inkscape"
   width="23"
   height="23"
   viewBox="0 0 6.0854167 6.085418"
   version="1.1"
   id="svg8"
   inkscape:version="0.92.3 (2405546, 2018-03-11)"
   sodipodi:docname="meeple-athena.svg"
   inkscape:export-filename="/home/sven/ideaprojects/pixgame/atlas/src/bunny.png"
   inkscape:export-xdpi="96"
   inkscape:export-ydpi="96">
  <defs
     id="defs2">
    <filter
       inkscape:collect="always"
       style="color-interpolation-filters:sRGB"
       id="filter4998"
       x="-0.064211553"
       width="1.1284231"
       y="-0.038324242"
       height="1.0766485">
      <feGaussianBlur
         inkscape:collect="always"
         stdDeviation="0.050671746"
         id="feGaussianBlur5000" />
    </filter>
  </defs>
  <sodipodi:namedview
     id="base"
     pagecolor="#808080"
     bordercolor="#666666"
     borderopacity="1.0"
     inkscape:pageopacity="0"
     inkscape:pageshadow="2"
     inkscape:zoom="18.47596"
     inkscape:cx="8.2471618"
     inkscape:cy="4.6310407"
     inkscape:document-units="px"
     inkscape:current-layer="layer1"
     showgrid="false"
     inkscape:measure-start="0,0"
     inkscape:measure-end="0,0"
     units="px"
     inkscape:window-width="1920"
     inkscape:window-height="1025"
     inkscape:window-x="0"
     inkscape:window-y="27"
     inkscape:window-maximized="1"
     inkscape:snap-global="false" />
  <metadata
     id="metadata5">
    <rdf:RDF>
      <cc:Work
         rdf:about="">
        <dc:format>image/svg+xml</dc:format>
        <dc:type
           rdf:resource="http://purl.org/dc/dcmitype/StillImage" />
        <dc:title></dc:title>
      </cc:Work>
    </rdf:RDF>
  </metadata>
  <g
     inkscape:label="Layer 1"
     inkscape:groupmode="layer"
     id="layer1"
     transform="translate(0,-290.9145)">
    <path
       style="opacity:1;vector-effect:none;fill:#ffffff;fill-opacity:0.53571427;fill-rule:evenodd;stroke:#000000;stroke-width:0.13567731;stroke-linecap:butt;stroke-linejoin:miter;stroke-miterlimit:4;stroke-dasharray:none;stroke-dashoffset:0;stroke-opacity:0.75294118"
       d="m 1.6844445,291.2599 c 0.4113215,0.97573 1.0267911,1.85829 1.7937726,2.58734 0.4104525,0.4294 0.7941059,0.91783 1.3532394,1.16001 0.3112863,0.18234 0.8599449,0.38906 0.4072233,0.76166 -0.5375999,0.78536 -1.525172,1.12076 -2.4595618,1.01469 -0.6004332,-0.0381 -1.237153,-0.21647 -1.6264702,-0.70748 -0.39693728,-0.42745 -0.74932107,-0.94165 -0.85127984,-1.52419 -0.006288,-0.50826 -0.0994186,-1.05623 0.18299775,-1.51367 0.26797811,-0.53343 0.53777279,-1.07212 0.95916199,-1.50526 0.079685,-0.0916 0.16049,-0.18217 0.2409168,-0.2731 z"
       id="path2133"
       inkscape:connector-curvature="0"
       sodipodi:nodetypes="cccccccccc" />
    <path
       style="opacity:1;vector-effect:none;fill:#ffffff;fill-opacity:0.6825397;fill-rule:evenodd;stroke:#000000;stroke-width:0.13567731;stroke-linecap:butt;stroke-linejoin:miter;stroke-miterlimit:4;stroke-dasharray:none;stroke-dashoffset:0;stroke-opacity:0.75294118"
       d="m 4.3901692,291.2599 c -0.6983842,1.26465 -1.6396221,2.39428 -2.7864284,3.27359 -0.4865849,0.33099 -1.35121014,0.88298 -0.5767129,1.42507 0.8590087,0.92313 2.3633037,1.09442 3.4466637,0.49421 1.0778698,-0.69502 1.6840605,-2.18582 1.1303676,-3.39186 -0.3157857,-0.65969 -0.6948589,-1.27901 -1.21389,-1.80101 z"
       id="path2135"
       inkscape:connector-curvature="0" />
    <path
       style="fill:#0f0b07;fill-opacity:0.62301588;fill-rule:evenodd;stroke:none;stroke-width:0.1864973px;stroke-linecap:butt;stroke-linejoin:miter;stroke-opacity:1;filter:url(#filter4998)"
       d="m 3.0666193,292.52089 c -0.179836,4e-4 -0.230047,0.007 -0.3607015,0.0486 -0.1054427,0.0335 -0.1508496,0.0535 -0.2377116,0.10542 -0.049493,0.0298 -0.058807,0.0318 -0.1043864,0.0258 -0.027577,-0.004 -0.062863,-0.0121 -0.078031,-0.0191 -0.015168,-0.007 -0.06547,-0.0156 -0.1121378,-0.0196 -0.072079,-0.006 -0.085266,-0.004 -0.085266,0.008 0,0.0186 0.011059,0.0258 0.099735,0.0687 0.040265,0.0194 0.080894,0.0447 0.090434,0.0558 0.016485,0.0192 0.015246,0.0236 -0.022221,0.092 -0.04977,0.0909 -0.085783,0.19763 -0.085783,0.25373 0,0.0238 -0.00362,0.0555 -0.00827,0.0703 -0.00954,0.0303 0.020819,0.2139 0.044442,0.2682 0.028529,0.0655 0.047931,0.10041 0.074414,0.13281 0.034221,0.0418 0.033874,0.0571 -0.00362,0.12299 -0.039809,0.07 -0.081534,0.18739 -0.1012858,0.28319 -0.020508,0.0994 -0.032644,0.4287 -0.01602,0.4377 0.00655,0.004 0.011886,0.0262 0.011886,0.0496 0,0.0582 0.040891,0.19171 0.090434,0.2961 0.00785,0.0164 0.014469,0.0327 0.014469,0.0367 0,0.0113 0.073601,0.11893 0.097668,0.14263 0.067449,0.0665 0.093483,0.0895 0.1353923,0.12144 0.040996,0.0312 0.04697,0.041 0.05271,0.0853 0.00356,0.0274 0.011143,0.0534 0.017053,0.0594 0.0059,0.005 0.00494,0.0209 0.010852,0.032 l 0.076481,0.14315 0.1694986,0.17156 c 0.02977,0.024 0.086638,0.06 0.094568,0.06 0.00364,0 0.018447,0.009 0.033073,0.0191 0.014624,0.0101 0.035353,0.0191 0.045992,0.0191 l 0.093018,0.002 0.028422,-0.006 c 0.015819,-0.004 0.036395,-0.0137 0.045475,-0.0207 0.00908,-0.008 0.019671,-0.0134 0.023771,-0.0134 0.00409,0 0.022879,-0.009 0.041341,-0.0212 0.018462,-0.0119 0.035887,-0.0228 0.038757,-0.0248 l 0.091984,-0.0971 c 0.014156,-3e-4 0.028709,-0.015 0.067179,-0.0667 0.04705,-0.0633 0.076282,-0.13051 0.1038696,-0.23875 0.021682,-0.0851 0.024303,-0.0879 0.1431438,-0.18397 0.072876,-0.0589 0.1898621,-0.24461 0.206189,-0.32711 0.00408,-0.0206 0.010469,-0.041 0.014469,-0.047 0.042508,-0.0558 0.067937,-0.33409 0.048576,-0.53382 -0.012573,-0.12971 -0.053615,-0.26549 -0.1116211,-0.37001 -0.036158,-0.0652 -0.037725,-0.0818 -0.00982,-0.1142 0.011507,-0.0134 0.021187,-0.0275 0.021187,-0.0315 0,-0.004 0.012929,-0.027 0.028939,-0.0512 0.034773,-0.0525 0.072532,-0.17258 0.081132,-0.25838 0.00382,-0.0382 3.281e-4,-0.0933 -0.0093,-0.14315 -0.029098,-0.1509 -0.041413,-0.18281 -0.1142047,-0.29404 -0.024884,-0.038 -0.03746,-0.0669 -0.03359,-0.078 0.00339,-0.01 0.043662,-0.0375 0.0894,-0.0615 0.1056831,-0.0556 0.1110311,-0.0772 0.01757,-0.0672 -0.035951,0.004 -0.093463,0.015 -0.1276405,0.0253 -0.076266,0.023 -0.1158611,0.0179 -0.1819011,-0.0243 -0.026736,-0.0171 -0.065134,-0.0364 -0.085266,-0.0434 -0.020132,-0.007 -0.05554,-0.0183 -0.078548,-0.0263 -0.1395288,-0.0476 -0.1939767,-0.0552 -0.3762045,-0.0548 z"
       id="path4941"
       inkscape:connector-curvature="0" />
    <path
       style="color:#000000;clip-rule:nonzero;display:inline;overflow:visible;visibility:visible;opacity:1;isolation:auto;mix-blend-mode:normal;color-interpolation:sRGB;color-interpolation-filters:linearRGB;solid-color:#000000;solid-opacity:1;vector-effect:none;fill:#000046;fill-opacity:0.17857143;fill-rule:evenodd;stroke:none;stroke-width:0.61139429;stroke-linecap:round;stroke-linejoin:round;stroke-miterlimit:4;stroke-dasharray:none;stroke-dashoffset:0;stroke-opacity:0.75294118;marker:none;color-rendering:auto;image-rendering:auto;shape-rendering:auto;text-rendering:auto;enable-background:accumulate"
       d="m 5.5183397,292.78296 c -0.5041001,1.87664 -2.0139778,3.17864 -3.9229058,3.1808 -0.1903184,-0.002 -0.3803017,-0.007 -0.5686613,-0.0345 0.5047733,0.54279 1.2116267,0.83418 1.9962076,0.83418 1.5327573,0 2.7944036,-1.05328 2.7755389,-3.00922 -0.00326,-0.3379 -0.2042981,-0.66349 -0.2801794,-0.97134 z"
       id="path829"
       inkscape:connector-curvature="0"
       sodipodi:nodetypes="cccsscc" />
    <path
       style="fill:#bc956f;fill-opacity:0.96428573;fill-rule:evenodd;stroke:none;stroke-width:0.1864973px;stroke-linecap:butt;stroke-linejoin:miter;stroke-opacity:1"
       d="m 2.5398569,292.65216 -0.2181349,0.15384 -0.1262886,0.31951 0.091846,0.39054 -0.034442,0.37277 -0.1148079,0.36093 0.1549906,0.54437 0.3219117,0.50982 0.5688309,0.11155 0.5615767,-0.71012 0.068885,-0.50887 -0.1262887,-0.52069 0.068885,-0.46745 -0.1779522,-0.50886 -0.482193,-0.1361 -0.4879333,0.0118 z"
       id="path873"
       inkscape:connector-curvature="0"
       sodipodi:nodetypes="ccccccccccccccccc" />
    <path
       style="fill:#483a2d;fill-opacity:0.99603176;stroke-width:0.00998813"
       d="m 2.8783688,295.60086 c -0.014626,-0.0105 -0.02957,-0.019 -0.033209,-0.019 -0.00793,0 -0.064504,-0.0361 -0.094274,-0.0601 l -0.1698579,-0.17119 -0.076308,-0.1431 c -0.00591,-0.0111 -0.00484,-0.0269 -0.010736,-0.0322 -0.00591,-0.006 -0.013652,-0.0322 -0.017215,-0.0596 -0.00574,-0.0443 -0.011723,-0.0539 -0.052719,-0.0851 -0.041909,-0.0319 -0.067699,-0.0551 -0.1351476,-0.1216 -0.024067,-0.0237 -0.097934,-0.13109 -0.097934,-0.14237 0,-0.004 -0.00642,-0.0204 -0.014268,-0.0368 -0.049543,-0.10439 -0.090317,-0.23819 -0.090317,-0.29639 0,-0.0234 -0.00534,-0.0456 -0.011886,-0.0493 -0.016624,-0.009 -0.00489,-0.33858 0.015618,-0.438 0.019752,-0.0958 0.061804,-0.21278 0.101613,-0.28273 0.037491,-0.0659 0.037961,-0.0814 0.00374,-0.1232 -0.026483,-0.0324 -0.046174,-0.0675 -0.074703,-0.13301 -0.023623,-0.0543 -0.054126,-0.23757 -0.044589,-0.2679 0.00465,-0.0148 0.00846,-0.0465 0.00846,-0.0703 0,-0.0561 0.036137,-0.1628 0.085907,-0.25368 0.037467,-0.0684 0.038561,-0.073 0.022076,-0.0922 -0.00954,-0.0111 -0.050288,-0.0362 -0.090553,-0.0556 -0.088677,-0.0429 -0.099355,-0.0503 -0.099355,-0.0689 0,-0.0123 0.012771,-0.0136 0.08485,-0.008 0.046668,0.004 0.09726,0.0121 0.1124278,0.0192 0.015168,0.007 0.05014,0.0157 0.077717,0.0194 0.045579,0.006 0.055091,0.004 0.104584,-0.0258 0.086862,-0.0519 0.1320238,-0.0719 0.2374665,-0.10544 0.1306546,-0.0416 0.1809792,-0.0483 0.3608151,-0.0487 0.1822279,-4.4e-4 0.2369739,0.007 0.3765027,0.0546 0.023008,0.008 0.058306,0.0196 0.078438,0.0265 0.020132,0.007 0.05848,0.0264 0.085216,0.0435 0.06604,0.0422 0.1058148,0.0475 0.1820808,0.0245 0.034178,-0.0103 0.091557,-0.0218 0.1275082,-0.0255 0.093461,-0.01 0.087888,0.0115 -0.017795,0.0671 -0.045738,0.024 -0.085933,0.0517 -0.089322,0.0614 -0.00387,0.0111 0.0086,0.0403 0.033484,0.0783 0.072792,0.11123 0.085165,0.14307 0.1142627,0.29397 0.00963,0.0499 0.013245,0.10492 0.00942,0.14308 -0.0086,0.0858 -0.046301,0.20607 -0.081074,0.25861 -0.01601,0.0242 -0.029109,0.0471 -0.029109,0.051 0,0.004 -0.00941,0.0178 -0.020917,0.0312 -0.027907,0.0324 -0.026478,0.0492 0.00968,0.11441 0.058006,0.10452 0.098888,0.24021 0.1114612,0.36992 0.019361,0.19973 -0.00589,0.47834 -0.048398,0.53418 -0.004,0.006 -0.0106,0.0264 -0.014679,0.047 -0.016327,0.0825 -0.133275,0.26791 -0.2061514,0.32685 -0.1188414,0.0961 -0.121171,0.0991 -0.142853,0.18419 -0.027588,0.10824 -0.056716,0.17518 -0.103766,0.23844 -0.03847,0.0517 -0.053274,0.0664 -0.06743,0.0667 l -0.092158,0.0972 c -0.00287,0.002 -0.020335,0.0128 -0.038797,0.0247 -0.018462,0.0118 -0.036915,0.0214 -0.04101,0.0214 -0.0041,0 -0.014873,0.006 -0.023954,0.0136 -0.00908,0.007 -0.029453,0.0165 -0.045272,0.0202 l -0.028761,0.006 -0.09288,-0.002 c -0.010639,0 -0.03131,-0.009 -0.045934,-0.0191 z m 0.5721837,-0.73021 c 0.029428,-0.0176 0.1038754,-0.10504 0.1132774,-0.13306 0.00352,-0.0105 0.018819,-0.0491 0.033996,-0.0858 0.043399,-0.10501 0.045978,-0.11462 0.07808,-0.2909 0.00837,-0.0459 0.011147,-0.12262 0.00778,-0.21463 -0.00494,-0.13485 -0.010984,-0.17021 -0.05833,-0.34133 -0.020274,-0.0733 -0.051868,-0.0812 -0.1325619,-0.0331 -0.028635,0.0171 -0.070884,0.0368 -0.093887,0.044 -0.023003,0.007 -0.055943,0.0189 -0.073199,0.0261 -0.097336,0.0405 -0.3572677,0.0626 -0.4915452,0.0419 -0.109174,-0.0169 -0.2291357,-0.0529 -0.3346689,-0.10063 -0.051769,-0.0234 -0.101722,-0.0475 -0.1110065,-0.0534 -0.00928,-0.006 -0.023886,-0.009 -0.032447,-0.006 -0.020906,0.007 -0.061487,0.11182 -0.082407,0.21222 -0.00547,0.0263 -0.014536,0.0659 -0.020154,0.0884 -0.013568,0.054 -0.013076,0.25598 7.257e-4,0.29802 0.00602,0.0184 0.015091,0.0612 0.020163,0.0953 0.014813,0.0996 0.065781,0.23682 0.1200832,0.32329 0.032509,0.0517 0.1070454,0.12471 0.1364188,0.1335 0.088405,0.064 0.1367719,0.40979 0.2627337,0.4138 0.00202,0.002 0.1640777,0.12901 0.3176127,0.004 0.2091903,-0.36902 0.3181571,-0.40993 0.3393402,-0.42232 z m -0.5170379,-1.17344 c 0,-0.0161 -0.019324,-0.0537 -0.03163,-0.0614 -0.00417,-0.002 -0.016563,-0.0198 -0.027539,-0.0382 -0.010977,-0.0183 -0.031972,-0.0506 -0.046659,-0.0716 -0.014684,-0.021 -0.052181,-0.0863 -0.083323,-0.14508 -0.046641,-0.0881 -0.060723,-0.10699 -0.079885,-0.10731 -0.015486,-2.6e-4 -0.028656,0.009 -0.039397,0.0281 -0.039563,0.0698 -0.1660808,0.0771 -0.2257822,0.0131 -0.029589,-0.0317 -0.041893,-0.0899 -0.02725,-0.12869 0.00718,-0.019 0.019588,-0.0418 0.027578,-0.0506 0.016547,-0.0182 0.077684,-0.0435 0.1050874,-0.0435 0.042972,0 0.040781,-0.0227 -0.0088,-0.091 -0.061372,-0.0846 -0.090893,-0.11868 -0.117833,-0.13589 -0.019015,-0.0121 -0.023872,-0.0114 -0.045593,0.007 -0.013371,0.0115 -0.039226,0.0569 -0.057456,0.10093 -0.030392,0.0735 -0.03316,0.0895 -0.033323,0.19377 -1.328e-4,0.0853 0.00396,0.12097 0.016372,0.14286 0.0091,0.016 0.01655,0.035 0.01655,0.042 0,0.0241 0.1042525,0.15777 0.1562753,0.20042 0.098717,0.081 0.3117669,0.15303 0.4686145,0.15852 0.024431,5.1e-4 0.033989,-0.004 0.033989,-0.0137 z m 0.305389,-0.0103 c 0.015533,-0.007 0.035825,-0.013 0.045094,-0.013 0.00927,0 0.051287,-0.0154 0.093375,-0.034 0.1327374,-0.059 0.2559795,-0.18888 0.305253,-0.32161 0.028378,-0.0765 0.025415,-0.27225 -0.00504,-0.33303 -0.012343,-0.0247 -0.022441,-0.0471 -0.022441,-0.0502 0,-0.004 -0.017635,-0.031 -0.039189,-0.0625 -0.048292,-0.0705 -0.067544,-0.0728 -0.1207013,-0.0149 -0.02135,0.0233 -0.038819,0.0462 -0.038819,0.051 0,0.005 -0.00941,0.0164 -0.020917,0.0259 -0.011505,0.01 -0.020917,0.0212 -0.020917,0.026 0,0.005 -0.01122,0.0223 -0.024932,0.039 -0.049938,0.0608 -0.04063,0.0924 0.027255,0.0924 0.035568,0 0.091583,0.0467 0.1078918,0.09 0.025842,0.0686 -0.011867,0.14246 -0.085011,0.16658 -0.032004,0.0105 -0.045842,0.0105 -0.081551,1.1e-4 -0.023653,-0.007 -0.04677,-0.0182 -0.051371,-0.025 -0.00459,-0.007 -0.021076,-0.0124 -0.036612,-0.0124 -0.025104,0 -0.03327,0.009 -0.073353,0.0835 -0.064156,0.11871 -0.1374858,0.24406 -0.1489972,0.25468 -0.011177,0.0103 -0.0132,0.0467 -0.00311,0.0558 0.011014,0.0101 0.1635815,-0.005 0.1940914,-0.0186 z m -0.193802,-0.52638 c 0.073501,-0.13777 0.152301,-0.23893 0.2743374,-0.35216 0.077835,-0.0722 0.1019391,-0.10741 0.073576,-0.10741 -0.00613,0 -0.037889,-0.0113 -0.070594,-0.025 -0.0805,-0.0337 -0.2034144,-0.0535 -0.3418426,-0.055 -0.1332087,-0.002 -0.2309925,0.0126 -0.3738882,0.0537 -0.089921,0.0258 -0.1019694,0.0319 -0.1019694,0.0511 0,0.0144 0.016519,0.0342 0.04842,0.058 0.056165,0.042 0.1358498,0.11214 0.1659774,0.14601 0.051117,0.0574 0.099355,0.11851 0.099355,0.12576 0,0.004 0.014119,0.0257 0.031375,0.0474 0.017256,0.0217 0.031376,0.0431 0.031376,0.0475 0,0.005 0.014459,0.036 0.032131,0.0702 0.021315,0.0412 0.038039,0.0618 0.049678,0.0614 0.011831,-4.6e-4 0.038564,-0.0401 0.082069,-0.12162 z"
       id="path867"
       inkscape:connector-curvature="0"
       sodipodi:nodetypes="csccsccccscsccccccscccsccccsccccccccccccsccccccccccsscccccccccccccccccccccccccccccccscccccccsccccccscccccscccsccscscsccccscccccccscccsccscscccc" />
    <ellipse
       style="color:#000000;clip-rule:nonzero;display:inline;overflow:visible;visibility:visible;opacity:1;isolation:auto;mix-blend-mode:normal;color-interpolation:sRGB;color-interpolation-filters:linearRGB;solid-color:#000000;solid-opacity:1;vector-effect:none;fill:#362b21;fill-opacity:0.94117647;fill-rule:evenodd;stroke:none;stroke-width:0.00998813;stroke-linecap:butt;stroke-linejoin:miter;stroke-miterlimit:4;stroke-dasharray:none;stroke-dashoffset:0;stroke-opacity:1;marker:none;paint-order:normal;color-rendering:auto;image-rendering:auto;shape-rendering:auto;text-rendering:auto;enable-background:accumulate"
       id="path823"
       cx="2.5107892"
       cy="293.21356"
       rx="0.14871815"
       ry="0.14446905" />
    <ellipse
       ry="0.14446905"
       rx="0.14871815"
       cy="293.21356"
       cx="3.3945997"
       id="ellipse848"
       style="color:#000000;clip-rule:nonzero;display:inline;overflow:visible;visibility:visible;opacity:1;isolation:auto;mix-blend-mode:normal;color-interpolation:sRGB;color-interpolation-filters:linearRGB;solid-color:#000000;solid-opacity:1;vector-effect:none;fill:#362b21;fill-opacity:0.94117647;fill-rule:evenodd;stroke:none;stroke-width:0.00998813;stroke-linecap:butt;stroke-linejoin:miter;stroke-miterlimit:4;stroke-dasharray:none;stroke-dashoffset:0;stroke-opacity:1;marker:none;paint-order:normal;color-rendering:auto;image-rendering:auto;shape-rendering:auto;text-rendering:auto;enable-background:accumulate" />
    <path
       style="fill:#0e161d;fill-opacity:1;stroke:none;stroke-width:0.07681477;stroke-miterlimit:4;stroke-dasharray:none;stroke-opacity:1"
       d="m 4.0018087,292.49894 c -0.1801518,0.0193 -0.3763576,0.0405 -0.5218712,0.15863 -0.199095,0.17198 -0.372328,0.37852 -0.4844972,0.61781 -0.1211497,-0.0245 -0.1481237,-0.16359 -0.2029676,-0.25483 -0.057564,-0.0854 -0.1412931,-0.14876 -0.2154463,-0.21902 -0.173869,-0.14555 -0.38511,-0.25255 -0.6109564,-0.2842 -0.099528,0.008 -0.02109,0.0894 0.034097,0.0969 0.1180617,0.0598 0.2112266,0.15549 0.3143588,0.23647 0.083534,0.0698 0.1491803,0.15831 0.1966659,0.25561 0.1348393,0.20042 0.2703916,0.40066 0.3929871,0.60883 0.076463,0.087 0.1880868,-0.007 0.213269,-0.0924 0.1136677,-0.20246 0.2417906,-0.39979 0.3148888,-0.62181 0.1152267,-0.17992 0.26593,-0.35986 0.4799836,-0.41911 0.018777,-0.025 0.1290442,-0.0353 0.089488,-0.0829 z"
       id="path822"
       inkscape:connector-curvature="0" />
  </g>
</svg>
