<?xml version="1.0" encoding="UTF-8" standalone="no"?>
<svg
   xmlns:dc="http://purl.org/dc/elements/1.1/"
   xmlns:cc="http://creativecommons.org/ns#"
   xmlns:rdf="http://www.w3.org/1999/02/22-rdf-syntax-ns#"
   xmlns:svg="http://www.w3.org/2000/svg"
   xmlns="http://www.w3.org/2000/svg"
   xmlns:sodipodi="http://sodipodi.sourceforge.net/DTD/sodipodi-0.dtd"
   xmlns:inkscape="http://www.inkscape.org/namespaces/inkscape"
   viewBox="0 0 22 18"
   version="1.1"
   id="svg70"
   sodipodi:docname="death.svg"
   width="22"
   height="18"
   inkscape:version="0.92.3 (2405546, 2018-03-11)">
  <metadata
     id="metadata76">
    <rdf:RDF>
      <cc:Work
         rdf:about="">
        <dc:format>image/svg+xml</dc:format>
        <dc:type
           rdf:resource="http://purl.org/dc/dcmitype/StillImage" />
        <dc:title></dc:title>
      </cc:Work>
    </rdf:RDF>
  </metadata>
  <defs
     id="defs74" />
  <sodipodi:namedview
     pagecolor="#ffffff"
     bordercolor="#666666"
     borderopacity="1"
     objecttolerance="10"
     gridtolerance="10"
     guidetolerance="10"
     inkscape:pageopacity="0"
     inkscape:pageshadow="2"
     inkscape:window-width="1920"
     inkscape:window-height="1025"
     id="namedview72"
     showgrid="false"
     inkscape:zoom="31.466667"
     inkscape:cx="7.2181176"
     inkscape:cy="7.8884953"
     inkscape:window-x="0"
     inkscape:window-y="27"
     inkscape:window-maximized="1"
     inkscape:current-layer="svg70" />
  <path
     id="path62"
     style="fill:#000000;stroke:#000000;stroke-width:1.05845213;stroke-linejoin:round;stroke-miterlimit:4;stroke-dasharray:none;stroke-opacity:0.99100001;fill-opacity:0.99100006"
     d="M 7.0986688,12.803655 C 5.9570794,12.310476 4.8502591,11.743789 3.6449284,11.372545 1.8208447,11.4968 -0.23870804,10.352403 1.6310959,8.8168962 3.3687236,8.3277021 3.75653,10.667654 5.8021693,10.795475 l 10.8089587,0.312999 c 1.888479,-0.888683 2.187014,-2.9229405 3.889689,-2.3565853 1.580531,1.2165359 0.184651,3.1069363 -1.698597,2.4979893 -1.28896,0.394416 -2.423084,1.08501 -3.697915,1.507916 M 7.4503489,13.27702 c -1.2328876,1.508126 -6.0441882,0.641279 -5.0324486,2.962393 1.8124076,2.469535 3.0335826,-1.208161 5.1340232,-1.288648 l 6.9469775,-0.04672 0.346164,0.200827 c 2.008005,-0.136319 2.6921,2.94289 4.436124,1.686716 2.348981,-2.625731 -3.141369,-2.152759 -4.521387,-3.401898"
     inkscape:connector-curvature="0"
     sodipodi:nodetypes="ccccccccccccccc" />
  <path
     style="fill:#ffffff;fill-rule:evenodd;stroke:none;stroke-width:1px;stroke-linecap:butt;stroke-linejoin:miter;stroke-opacity:1;fill-opacity:1"
     d="M 5.4408161,9.6394815 4.036017,6.559322 5.4978814,2.3961864 7.9300002,1.1193808 13.315678,0.93432198 l 2.987288,1.39830512 1.620763,2.9872881 -0.03178,3.2415254 -1.230446,2.0348694 -1.557198,2.161484 -0.803457,1.810003 c 0,0 -0.349577,0.985169 -0.476695,1.016949 -0.127119,0.03178 -3.432204,0.762712 -3.432204,0.762712 L 8.0402543,15.552966 7.4503489,13.27702 6.2923729,11.707627 5.5282606,10.62224 Z"
     id="path3631"
     inkscape:connector-curvature="0" />
  <path
     style="fill-rule:evenodd;stroke:#000000;stroke-width:0.09113885;stroke-opacity:0.99100001"
     d="M 14.047735,8.9766444 C 11.017632,7.1692895 9.7496611,12.242857 13.312107,12.007568 14.823687,11.835341 15.798308,9.5073179 14.047735,8.9766444 Z"
     id="path8"
     inkscape:connector-curvature="0" />
  <path
     style="fill-rule:evenodd;stroke:#000000;stroke-width:0.09113885;stroke-opacity:0.99100001"
     d="M 7.8433664,9.0367909 C 10.873468,7.2294353 12.141441,12.303003 8.5789966,12.067715 7.0674175,11.895487 6.092798,9.5674671 7.8433664,9.0367909 Z"
     id="path6"
     inkscape:connector-curvature="0" />
  <path
     style="fill:none;fill-rule:evenodd;stroke:#000000;stroke-width:1.05845213;stroke-linejoin:round;stroke-miterlimit:4;stroke-dasharray:none;stroke-opacity:0.99100001"
     d="m 5.6800404,8.943925 c 0.082247,0.9467655 0.1730961,0.7560655 -0.1517798,1.678315 0.373547,1.397221 1.8961837,1.185965 1.9220883,2.65478"
     id="path44"
     inkscape:connector-curvature="0"
     sodipodi:nodetypes="ccc" />
  <path
     style="fill:none;fill-rule:evenodd;stroke:#000000;stroke-width:1.05845213;stroke-linejoin:round;stroke-miterlimit:4;stroke-dasharray:none;stroke-opacity:0.99100001"
     d="m 16.49127,8.9698796 c -0.08243,0.9460947 -0.15444,0.7049449 0.170233,1.6264304 -0.190616,0.697455 -0.686149,0.836875 -1.141192,0.984754 -0.455043,0.14788 -0.869597,0.304219 -0.898256,1.035512"
     id="path46"
     inkscape:connector-curvature="0"
     sodipodi:nodetypes="ccsc" />
  <path
     style="fill:none;fill-rule:evenodd;stroke:#000000;stroke-width:1.05845213;stroke-linecap:round;stroke-linejoin:round;stroke-miterlimit:4;stroke-dasharray:none;stroke-opacity:0.99100001"
     d="M 5.4408161,9.6394815 C 2.7448957,7.409493 4.1348858,1.7472298 7.9300002,1.1193808 11.109375,0.2835086 15.32409,0.85500445 17.109144,3.658958 c 0.974302,1.6752142 1.286559,5.102126 -0.384782,6.388975"
     id="path42"
     inkscape:connector-curvature="0"
     sodipodi:nodetypes="cccc" />
  <path
     style="fill:none;fill-rule:evenodd;stroke:#000000;stroke-width:1.05845213;stroke-miterlimit:4;stroke-dasharray:none;stroke-opacity:0.99100001"
     d="m 7.1857856,12.450593 c 1.1127007,1.725347 -0.691102,2.819124 2.2187669,3.499048 0.5383921,0.171018 1.1224525,0.23426 1.6919025,0.175707"
     id="path48"
     inkscape:connector-curvature="0"
     sodipodi:nodetypes="ccc" />
  <path
     style="fill:none;fill-rule:evenodd;stroke:#000000;stroke-width:1.05845213;stroke-miterlimit:4;stroke-dasharray:none;stroke-opacity:0.99100001"
     d="m 14.915399,12.12095 c -1.104377,1.726002 0.726482,3.138889 -2.178866,3.81721 -0.532676,0.171853 -1.174041,0.239484 -1.739306,0.187189"
     id="path50"
     inkscape:connector-curvature="0"
     sodipodi:nodetypes="ccc" />
</svg>
