<?xml version="1.0" encoding="UTF-8" standalone="no"?>
<!-- Created with Inkscape (http://www.inkscape.org/) -->

<svg
   xmlns:dc="http://purl.org/dc/elements/1.1/"
   xmlns:cc="http://creativecommons.org/ns#"
   xmlns:rdf="http://www.w3.org/1999/02/22-rdf-syntax-ns#"
   xmlns:svg="http://www.w3.org/2000/svg"
   xmlns="http://www.w3.org/2000/svg"
   xmlns:sodipodi="http://sodipodi.sourceforge.net/DTD/sodipodi-0.dtd"
   xmlns:inkscape="http://www.inkscape.org/namespaces/inkscape"
   width="17"
   height="14"
   viewBox="0 0 4.4979164 3.7041665"
   version="1.1"
   id="svg8"
   inkscape:version="0.92.3 (2405546, 2018-03-11)"
   sodipodi:docname="symbol-hate.svg">
  <defs
     id="defs2" />
  <sodipodi:namedview
     id="base"
     pagecolor="#808080"
     bordercolor="#666666"
     borderopacity="1.0"
     inkscape:pageopacity="0"
     inkscape:pageshadow="2"
     inkscape:zoom="16"
     inkscape:cx="16.964108"
     inkscape:cy="11.680665"
     inkscape:document-units="mm"
     inkscape:current-layer="layer1"
     showgrid="false"
     inkscape:window-width="1920"
     inkscape:window-height="1025"
     inkscape:window-x="0"
     inkscape:window-y="27"
     inkscape:window-maximized="1"
     units="px" />
  <metadata
     id="metadata5">
    <rdf:RDF>
      <cc:Work
         rdf:about="">
        <dc:format>image/svg+xml</dc:format>
        <dc:type
           rdf:resource="http://purl.org/dc/dcmitype/StillImage" />
        <dc:title></dc:title>
      </cc:Work>
    </rdf:RDF>
  </metadata>
  <g
     inkscape:label="Layer 1"
     inkscape:groupmode="layer"
     id="layer1"
     transform="translate(0,-293.29584)">
    <g
       aria-label="#!"
       style="font-style:normal;font-variant:normal;font-weight:600;font-stretch:normal;font-size:11.28888893px;line-height:125%;font-family:FreeSans;-inkscape-font-specification:'FreeSans, Semi-Bold';font-variant-ligatures:normal;font-variant-caps:normal;font-variant-numeric:normal;font-feature-settings:normal;text-align:center;letter-spacing:0px;word-spacing:0px;writing-mode:lr-tb;text-anchor:middle;fill:#000000;fill-opacity:1;stroke:none;stroke-width:0.26458332px;stroke-linecap:butt;stroke-linejoin:miter;stroke-opacity:1"
       id="text5593"
       transform="matrix(0.32494432,0,0,0.32494432,1.6359892,200.95512)">
      <path
         sodipodi:type="inkscape:offset"
         inkscape:radius="0.35323188"
         inkscape:original="M -1.0976562 286.25195 L -1.6582031 288.53906 L -3.6484375 288.53906 L -3.6484375 289.38867 L -1.875 289.38867 L -2.3378906 291.22852 L -4.2773438 291.22852 L -4.2773438 292.07227 L -2.5410156 292.07227 L -3.1152344 294.35352 L -2.2265625 294.35352 L -1.6582031 292.07227 L -0.044921875 292.07227 L -0.61132812 294.35352 L 0.26953125 294.35352 L 0.84375 292.07227 L 2.8105469 292.07227 L 2.8105469 291.22852 L 1.0585938 291.22852 L 1.5097656 289.38867 L 3.4453125 289.38867 L 3.4453125 288.53906 L 1.7246094 288.53906 L 2.2929688 286.25195 L 1.4101562 286.25195 L 0.83203125 288.53906 L -0.77734375 288.53906 L -0.203125 286.25195 L -1.0976562 286.25195 z M -0.98046875 289.38867 L 0.62304688 289.38867 L 0.16992188 291.22852 L -1.4433594 291.22852 L -0.98046875 289.38867 z "
         style="font-style:normal;font-variant:normal;font-weight:normal;font-stretch:normal;font-size:11.28888893px;font-family:ChunkFive;-inkscape-font-specification:'ChunkFive, Normal';font-variant-ligatures:normal;font-variant-caps:normal;font-variant-numeric:normal;font-feature-settings:normal;text-align:center;writing-mode:lr-tb;text-anchor:middle;stroke-width:0.26458332px"
         id="path5595"
         d="m -1.0976562,285.89844 a 0.3532672,0.3532672 0 0 0 -0.34375,0.26953 l -0.4941407,2.01758 h -1.7128906 a 0.3532672,0.3532672 0 0 0 -0.3535156,0.35351 v 0.84961 a 0.3532672,0.3532672 0 0 0 0.3535156,0.35352 h 1.3203125 l -0.2851562,1.13281 h -1.6640626 a 0.3532672,0.3532672 0 0 0 -0.3535156,0.35352 v 0.84375 a 0.3532672,0.3532672 0 0 0 0.3535156,0.35351 h 1.2832032 l -0.4628906,1.8418 a 0.3532672,0.3532672 0 0 0 0.3417968,0.43945 h 0.8886719 a 0.3532672,0.3532672 0 0 0 0.3417969,-0.26758 l 0.5019531,-2.01367 h 0.88476562 l -0.45703124,1.8418 a 0.3532672,0.3532672 0 0 0 0.34375,0.43945 h 0.88085937 a 0.3532672,0.3532672 0 0 0 0.34179687,-0.26758 l 0.50781248,-2.01367 h 1.6914063 a 0.3532672,0.3532672 0 0 0 0.3535156,-0.35351 v -0.84375 A 0.3532672,0.3532672 0 0 0 2.8105469,290.875 H 1.5097656 l 0.2773438,-1.13281 h 1.6582031 a 0.3532672,0.3532672 0 0 0 0.3535156,-0.35352 v -0.84961 A 0.3532672,0.3532672 0 0 0 3.4453125,288.18555 H 2.1777344 l 0.4589844,-1.84766 a 0.3532672,0.3532672 0 0 0 -0.34375,-0.43945 H 1.4101562 a 0.3532672,0.3532672 0 0 0 -0.3417968,0.26758 l -0.51171878,2.01953 h -0.8828125 l 0.46484376,-1.84766 A 0.3532672,0.3532672 0 0 0 -0.203125,285.89844 Z m 0.39257808,3.84375 H 0.171875 l -0.27929688,1.13281 h -0.8828125 z" />
      <path
         d="m 4.7931761,293.68304 c 0,0.77865 0.7337336,1.54234 1.7070532,1.54234 1.0931132,0 1.7819242,-0.70379 1.7819242,-1.54234 0,-0.85354 -0.7187592,-1.58726 -1.7819242,-1.58726 -1.0781389,0 -1.7070532,0.83855 -1.7070532,1.58726 z m 0.8685008,-2.32099 H 7.638265 l 0.79363,-3.7735 v -2.84509 H 4.8530728 v 2.84509 z"
         style="font-style:normal;font-variant:normal;font-weight:normal;font-stretch:normal;font-size:11.28888893px;font-family:ChunkFive;-inkscape-font-specification:'ChunkFive, Normal';font-variant-ligatures:normal;font-variant-caps:normal;font-variant-numeric:normal;font-feature-settings:normal;text-align:center;writing-mode:lr-tb;text-anchor:middle;stroke-width:0.35095668px"
         id="path5597"
         inkscape:connector-curvature="0"
         sodipodi:nodetypes="sssssccccccc" />
    </g>
  </g>
</svg>
