<?xml version="1.0" encoding="UTF-8" standalone="no"?>
<!-- Created with Inkscape (http://www.inkscape.org/) -->

<svg
   xmlns:dc="http://purl.org/dc/elements/1.1/"
   xmlns:cc="http://creativecommons.org/ns#"
   xmlns:rdf="http://www.w3.org/1999/02/22-rdf-syntax-ns#"
   xmlns:svg="http://www.w3.org/2000/svg"
   xmlns="http://www.w3.org/2000/svg"
   xmlns:sodipodi="http://sodipodi.sourceforge.net/DTD/sodipodi-0.dtd"
   xmlns:inkscape="http://www.inkscape.org/namespaces/inkscape"
   width="23"
   height="23"
   viewBox="0 0 6.0854167 6.085418"
   version="1.1"
   id="svg8"
   inkscape:version="0.92.3 (2405546, 2018-03-11)"
   sodipodi:docname="symbol-sword.svg"
   inkscape:export-filename="/home/sven/ideaprojects/pixgame/atlas/src/bunny.png"
   inkscape:export-xdpi="96"
   inkscape:export-ydpi="96">
  <defs
     id="defs2" />
  <sodipodi:namedview
     id="base"
     pagecolor="#808080"
     bordercolor="#666666"
     borderopacity="1.0"
     inkscape:pageopacity="0"
     inkscape:pageshadow="2"
     inkscape:zoom="18.47596"
     inkscape:cx="23.553115"
     inkscape:cy="16.380279"
     inkscape:document-units="mm"
     inkscape:current-layer="layer1"
     showgrid="false"
     inkscape:measure-start="0,0"
     inkscape:measure-end="0,0"
     units="px"
     inkscape:window-width="1920"
     inkscape:window-height="1025"
     inkscape:window-x="0"
     inkscape:window-y="27"
     inkscape:window-maximized="1"
     inkscape:snap-global="false" />
  <metadata
     id="metadata5">
    <rdf:RDF>
      <cc:Work
         rdf:about="">
        <dc:format>image/svg+xml</dc:format>
        <dc:type
           rdf:resource="http://purl.org/dc/dcmitype/StillImage" />
        <dc:title></dc:title>
      </cc:Work>
    </rdf:RDF>
  </metadata>
  <g
     inkscape:label="Layer 1"
     inkscape:groupmode="layer"
     id="layer1"
     transform="translate(0,-290.9145)">
    <path
       transform="matrix(0.04295418,0,0,0.04295418,9.9949138,279.81176)"
       sodipodi:type="inkscape:offset"
       inkscape:radius="1.3229198"
       inkscape:original="M -93.392578 261.6582 C -93.471397 261.57939 -100.36438 264.49975 -109.13086 266.71289 L -126.57812 271.11719 L -156.9707 307.26758 C -174.70514 326.71317 -189.2434 342.69119 -189.2793 342.77539 C -189.31517 342.85961 -187.34242 344.23051 -184.89453 345.82031 C -180.90479 348.41147 -179.91964 348.80013 -177.55273 353.16016 C -175.96293 355.60805 -174.59397 357.58278 -174.50977 357.54688 C -174.42555 357.51099 -159.20517 342.10027 -139 325.23633 L -102.58789 294.84375 L -98.447266 277.39648 C -95.588091 268.81893 -93.313758 261.737 -93.392578 261.6582 z M -208.4707 334.80469 L -211.93945 338.27148 L -215.40625 341.73828 L -208.29883 348.84961 L -201.19141 355.95898 L -209.56836 366.54688 L -217.94531 377.13477 L -219.71875 377.24023 C -224.62438 377.53191 -228.50337 381.5308 -228.73242 386.5332 C -228.88006 389.7575 -228.13073 391.84089 -226.01562 394.08203 C -224.9127 395.25068 -223.54809 396.11213 -221.89062 396.68555 C -221.37461 396.86404 -219.91087 396.98097 -218.58398 396.95117 C -216.63472 396.90746 -215.93032 396.77108 -214.70117 396.19727 C -211.40381 394.65795 -209.1639 391.45755 -208.96875 388.00391 L -208.86719 386.21094 L -198.28125 377.83398 L -187.69336 369.45703 L -180.58203 376.56445 L -173.4707 383.67188 L -170.00391 380.20508 L -166.53711 376.73828 L -175.19141 364.42383 L -183.84375 352.11133 L -196.1582 343.45703 L -208.4707 334.80469 z "
       style="fill:#000000;stroke-width:0.26458332"
       id="path4170"
       d="m -93.464844,260.33594 c -0.580606,0.0556 -2.200025,0.69923 -1.65039,0.52929 -0.793392,0.29695 -1.926251,0.71889 -3.328125,1.21289 -2.803751,0.98802 -6.682591,2.25866 -11.011721,3.35157 l -17.44726,4.40429 a 1.3230521,1.3230521 0 0 0 -0.6875,0.43164 l -30.38672,36.14454 -0.006,0.006 c -8.85125,9.70531 -16.91054,18.55026 -22.75781,24.97656 -2.92819,3.21815 -5.30325,5.82997 -6.94922,7.64453 -0.82299,0.90728 -1.46317,1.61487 -1.90039,2.09961 -0.21862,0.24237 -0.38607,0.42872 -0.50196,0.55859 -0.0579,0.0649 -0.10381,0.11638 -0.13867,0.15625 -0.0174,0.0199 -0.0312,0.0357 -0.0488,0.0566 -0.009,0.0105 -0.0177,0.0208 -0.0351,0.043 -0.009,0.0111 -0.0186,0.0242 -0.0391,0.0527 -0.0204,0.0285 -0.14243,0.25162 -0.14257,0.25195 a 1.3230521,1.3230521 0 0 0 0,0.002 c -2.8e-4,6.6e-4 -0.10544,0.46013 -0.10547,0.46094 -4e-5,8.1e-4 0.008,0.248 0.0273,0.33789 0.0384,0.17978 0.0916,0.28102 0.13281,0.35742 0.0824,0.15281 0.13667,0.21023 0.17969,0.25977 0.0861,0.0991 0.13441,0.13859 0.18555,0.18359 0.10228,0.09 0.20163,0.16693 0.32422,0.25977 0.24517,0.18567 0.57273,0.42127 0.97851,0.70312 0.81157,0.5637 1.92473,1.30829 3.15821,2.10938 4.02248,2.61243 4.59118,2.60759 6.90039,6.86133 a 1.3230521,1.3230521 0 0 0 0.0527,0.0898 c 0.80087,1.23313 1.54436,2.34633 2.10742,3.1582 0.28154,0.40594 0.51577,0.73322 0.70117,0.97852 0.0927,0.12265 0.16989,0.22186 0.25977,0.32422 0.0449,0.0512 0.0865,0.10131 0.18555,0.1875 0.0495,0.0431 0.10489,0.0971 0.25781,0.17968 0.0765,0.0413 0.17933,0.0923 0.35937,0.13086 0.09,0.0193 0.33708,0.0293 0.3379,0.0293 8.1e-4,-4e-5 0.46223,-0.10519 0.46289,-0.10547 3.2e-4,-1.4e-4 0.25697,-0.14521 0.28906,-0.16992 0.0321,-0.0247 0.0465,-0.0365 0.0586,-0.0469 0.0243,-0.0209 0.0361,-0.0311 0.0469,-0.041 0.0215,-0.0199 0.0374,-0.0361 0.0566,-0.0547 0.0385,-0.0371 0.0847,-0.0838 0.14648,-0.14453 0.12364,-0.12152 0.30165,-0.2968 0.5332,-0.52539 0.46312,-0.45718 1.14075,-1.12611 2.01563,-1.98047 1.74976,-1.70871 4.28564,-4.15882 7.44922,-7.13476 6.32716,-5.9519 15.16634,-14.00441 25.24219,-22.41407 l 36.41211,-30.39257 a 1.3230521,1.3230521 0 0 0 0.43945,-0.71094 l 4.124999,-17.38282 c 1.423267,-4.27038 2.702867,-8.17458 3.617187,-11.02148 0.459181,-1.42974 0.825822,-2.59342 1.076172,-3.41406 0.125175,-0.41032 0.220824,-0.7328 0.28711,-0.97266 0.03314,-0.11992 0.05974,-0.2147 0.08203,-0.31445 0.01114,-0.0499 0.02148,-0.0955 0.0332,-0.18555 0.0059,-0.045 0.01401,-0.0979 0.01172,-0.2168 -0.0011,-0.0595 -0.0011,-0.13516 -0.03125,-0.26953 -0.01508,-0.0672 -0.08765,-0.25729 -0.08789,-0.25781 -2.36e-4,-5.2e-4 -0.269223,-0.39032 -0.269531,-0.39062 -3.08e-4,-3.1e-4 -0.423313,-0.28494 -0.423828,-0.28516 -5.16e-4,-2.2e-4 -0.214456,-0.071 -0.289063,-0.084 -0.149213,-0.026 -0.230822,-0.0207 -0.294922,-0.0176 z m -114.990236,73.14648 a 1.3230521,1.3230521 0 0 0 -0.95117,0.38672 l -3.46875,3.4668 -3.4668,3.46679 a 1.3230521,1.3230521 0 0 0 0,1.8711 l 7.10742,7.11133 6.2754,6.27734 -7.64649,9.66406 -8.00976,10.12305 -1.18165,0.0703 c -5.57951,0.33175 -9.99902,4.90078 -10.25781,10.55274 -0.15818,3.45463 0.78722,6.09223 3.07617,8.51757 1.25405,1.32878 2.82393,2.3114 4.65625,2.94532 0.53888,0.1864 1.02944,0.22746 1.67579,0.27929 0.64634,0.0518 1.3786,0.0746 2.09179,0.0586 2.00378,-0.0449 3.08218,-0.25518 4.41407,-0.87696 3.72613,-1.73948 6.26746,-5.3414 6.49218,-9.31836 l 0.0684,-1.19921 10.11914,-8.00782 9.66602,-7.64648 6.27734,6.27539 7.11133,7.10742 a 1.3230521,1.3230521 0 0 0 1.87109,0 l 3.4668,-3.4668 3.4668,-3.46679 a 1.3230521,1.3230521 0 0 0 0.14648,-1.69531 l -8.6543,-12.31446 -8.65234,-12.3125 a 1.3230521,1.3230521 0 0 0 -0.32226,-0.32226 l -12.31446,-8.6543 -12.3125,-8.65234 a 1.3230521,1.3230521 0 0 0 -0.74414,-0.24024 z" />
  </g>
</svg>
