<?xml version="1.0" encoding="UTF-8" standalone="no"?>
<!-- Created with Inkscape (http://www.inkscape.org/) -->

<svg
   xmlns:dc="http://purl.org/dc/elements/1.1/"
   xmlns:cc="http://creativecommons.org/ns#"
   xmlns:rdf="http://www.w3.org/1999/02/22-rdf-syntax-ns#"
   xmlns:svg="http://www.w3.org/2000/svg"
   xmlns="http://www.w3.org/2000/svg"
   xmlns:sodipodi="http://sodipodi.sourceforge.net/DTD/sodipodi-0.dtd"
   xmlns:inkscape="http://www.inkscape.org/namespaces/inkscape"
   width="15"
   height="24"
   viewBox="0 0 3.9687499 6.3499996"
   version="1.1"
   id="svg8"
   inkscape:version="0.92.3 (2405546, 2018-03-11)"
   sodipodi:docname="symbol-owl.svg">
  <defs
     id="defs2" />
  <sodipodi:namedview
     id="base"
     pagecolor="#ffffff"
     bordercolor="#666666"
     borderopacity="1.0"
     inkscape:pageopacity="0.0"
     inkscape:pageshadow="2"
     inkscape:zoom="32"
     inkscape:cx="6.3963826"
     inkscape:cy="10.649541"
     inkscape:document-units="mm"
     inkscape:current-layer="layer1"
     showgrid="false"
     inkscape:window-width="1920"
     inkscape:window-height="1025"
     inkscape:window-x="0"
     inkscape:window-y="27"
     inkscape:window-maximized="1"
     inkscape:snap-global="false"
     units="px" />
  <metadata
     id="metadata5">
    <rdf:RDF>
      <cc:Work
         rdf:about="">
        <dc:format>image/svg+xml</dc:format>
        <dc:type
           rdf:resource="http://purl.org/dc/dcmitype/StillImage" />
        <dc:title />
      </cc:Work>
    </rdf:RDF>
  </metadata>
  <g
     inkscape:label="Layer 1"
     inkscape:groupmode="layer"
     id="layer1"
     transform="translate(0,-290.65004)">
    <path
       style="fill:#bc956f;fill-opacity:0.94117647;fill-rule:evenodd;stroke:none;stroke-width:0.36290184px;stroke-linecap:butt;stroke-linejoin:miter;stroke-opacity:1"
       d="m 1.1314324,291.12861 -0.42446489,0.29935 -0.24574284,0.62174 0.17872206,0.75993 -0.0670208,0.72537 -0.22340257,0.70234 0.30159347,1.05927 0.62640227,0.99206 1.106878,0.21705 1.0927623,-1.38181 0.1340419,-0.99019 -0.2457429,-1.01321 0.1340419,-0.9096 -0.346274,-0.99018 -0.9382909,-0.26483 -0.9494609,0.023 z"
       id="path873"
       inkscape:connector-curvature="0"
       sodipodi:nodetypes="ccccccccccccccccc" />
    <path
       style="fill:#7f664f;stroke-width:0.01943573;fill-opacity:0.94117647"
       d="m 1.7901367,296.86644 c -0.02846,-0.0204 -0.057539,-0.037 -0.064621,-0.037 -0.015439,0 -0.1255172,-0.0702 -0.1834453,-0.11699 l -0.3305235,-0.33312 -0.148487,-0.27845 c -0.011495,-0.0215 -0.00941,-0.0523 -0.020891,-0.0627 -0.011495,-0.0108 -0.026565,-0.0627 -0.033499,-0.11605 -0.0111739,-0.0861 -0.0228112,-0.10483 -0.10258466,-0.16562 -0.0815499,-0.0621 -0.13173511,-0.10727 -0.26298134,-0.23663 -0.046831,-0.0461 -0.1905674,-0.25509 -0.1905674,-0.27703 0,-0.008 -0.0124897,-0.0397 -0.0277631,-0.0717 -0.0964057,-0.20314 -0.175746,-0.46349 -0.175746,-0.57675 0,-0.0455 -0.0103998,-0.0888 -0.0231281,-0.0959 -0.0323492,-0.0184 -0.009507,-0.65882 0.0303909,-0.85228 0.0384356,-0.18635 0.12026375,-0.41405 0.19772697,-0.55017 0.0729525,-0.12821 0.0738677,-0.15833 0.007282,-0.23973 -0.0515334,-0.063 -0.0898494,-0.13131 -0.14536373,-0.25883 -0.045968,-0.10565 -0.10532364,-0.46228 -0.086765,-0.5213 0.009051,-0.0288 0.016467,-0.0904 0.016467,-0.13683 0,-0.10916 0.0703181,-0.31679 0.16716543,-0.49363 0.0729068,-0.13307 0.0750356,-0.14204 0.0429577,-0.17939 -0.0185622,-0.0217 -0.0978554,-0.0704 -0.17620632,-0.10822 -0.17255609,-0.0835 -0.19333276,-0.0978 -0.19333276,-0.13401 0,-0.0239 0.02485063,-0.0264 0.16510914,-0.0157 0.09081,0.008 0.18925729,0.0236 0.21877131,0.0374 0.0295144,0.0138 0.097567,0.0305 0.15122757,0.0378 0.0886913,0.0122 0.10720122,0.008 0.20350832,-0.0503 0.16902349,-0.10105 0.25690277,-0.13989 0.46208187,-0.20516 0.2542385,-0.0809 0.3521642,-0.094 0.7021038,-0.0948 0.3545941,-8.6e-4 0.4611233,0.0138 0.7326299,0.10619 0.044771,0.0154 0.1134558,0.0382 0.1526315,0.0515 0.039175,0.0138 0.1137949,0.0513 0.1658205,0.0846 0.128507,0.0821 0.2059032,0.0925 0.3543079,0.0477 0.066507,-0.0201 0.1781599,-0.0424 0.2481159,-0.0496 0.1818641,-0.0186 0.1710205,0.0223 -0.034627,0.1305 -0.089001,0.0467 -0.167216,0.10065 -0.1738104,0.11956 -0.00754,0.0216 0.016737,0.0784 0.065155,0.15235 0.1416439,0.21644 0.1657209,0.2784 0.2223417,0.57202 0.01873,0.0971 0.025774,0.20416 0.018329,0.27842 -0.016737,0.16701 -0.090097,0.40099 -0.1577604,0.50322 -0.031153,0.047 -0.056643,0.0916 -0.056643,0.0992 0,0.008 -0.018317,0.0347 -0.040702,0.0608 -0.054304,0.0631 -0.051523,0.0958 0.018831,0.22262 0.1128736,0.20339 0.1924252,0.46743 0.2168904,0.71983 0.037675,0.38864 -0.011456,0.9308 -0.094176,1.03945 -0.00778,0.0108 -0.020627,0.0513 -0.028564,0.0915 -0.031771,0.16053 -0.2593375,0.52132 -0.4011465,0.63601 -0.2312514,0.187 -0.2357844,0.19285 -0.2779752,0.3584 -0.053682,0.21063 -0.1103634,0.34089 -0.2019164,0.46399 -0.074857,0.10064 -0.1036653,0.12915 -0.1312102,0.12969 l -0.1793279,0.18909 c -0.00559,0.003 -0.039569,0.025 -0.075494,0.048 -0.035925,0.023 -0.071832,0.0416 -0.0798,0.0416 -0.00797,0 -0.028942,0.0122 -0.046612,0.0265 -0.017671,0.0138 -0.057312,0.0322 -0.088093,0.0392 l -0.055965,0.0122 -0.1807346,-0.004 c -0.020702,0 -0.060926,-0.0168 -0.089383,-0.0371 z m 1.1134023,-1.42091 c 0.057263,-0.0343 0.2021292,-0.20439 0.2204244,-0.25891 0.00685,-0.0204 0.036619,-0.0956 0.066153,-0.16707 0.08445,-0.20434 0.089467,-0.22303 0.1519337,-0.56605 0.016282,-0.0894 0.021691,-0.23861 0.015136,-0.41764 -0.00962,-0.2624 -0.021374,-0.33122 -0.1135044,-0.66419 -0.039451,-0.14266 -0.1009297,-0.15794 -0.2579499,-0.0644 -0.055721,0.0332 -0.137932,0.0717 -0.1826934,0.0857 -0.044762,0.0138 -0.1088585,0.0367 -0.1424365,0.0508 -0.1894046,0.0789 -0.6952008,0.12186 -0.9564891,0.0815 -0.2124398,-0.0328 -0.4458712,-0.10295 -0.6512264,-0.1958 -0.10073578,-0.0455 -0.19793903,-0.0924 -0.21600547,-0.10402 -0.0180665,-0.0122 -0.0464786,-0.0166 -0.0631378,-0.0108 -0.0406807,0.0138 -0.1196469,0.21759 -0.16035443,0.41295 -0.0106348,0.0511 -0.0282857,0.12834 -0.0392177,0.17197 -0.0264013,0.1051 -0.0254439,0.49811 0.001412,0.57991 0.0117143,0.0357 0.029366,0.11916 0.0392345,0.18549 0.0288233,0.19381 0.12800183,0.46083 0.23366771,0.62909 0.0632592,0.10065 0.20829789,0.24267 0.26545509,0.25977 0.172025,0.12462 0.266142,0.79741 0.5112488,0.80521 0.00394,0.003 0.319276,0.25105 0.6180371,0.008 0.4070597,-0.71807 0.6190963,-0.79768 0.6603161,-0.82178 z m -1.006095,-2.28338 c 0,-0.0313 -0.037602,-0.10443 -0.061549,-0.11943 -0.00811,-0.004 -0.032229,-0.0386 -0.053588,-0.0743 -0.021359,-0.0357 -0.062213,-0.0984 -0.090792,-0.13929 -0.028574,-0.0409 -0.1015375,-0.16787 -0.162136,-0.28231 -0.090757,-0.17137 -0.1181599,-0.20818 -0.1554464,-0.20881 -0.030133,-5.1e-4 -0.055762,0.0177 -0.076661,0.0546 -0.076986,0.13575 -0.32317366,0.15004 -0.43934571,0.0254 -0.0575775,-0.0617 -0.0815181,-0.17483 -0.0530252,-0.25041 0.013972,-0.037 0.0381155,-0.0813 0.0536638,-0.0984 0.0321993,-0.0354 0.15116351,-0.0846 0.20448791,-0.0846 0.083618,0 0.079355,-0.0442 -0.017123,-0.17713 -0.11942268,-0.16469 -0.1768679,-0.23094 -0.22928921,-0.26443 -0.0370013,-0.0236 -0.0464518,-0.0222 -0.0887183,0.0138 -0.0260187,0.0223 -0.0763302,0.11064 -0.11180263,0.19639 -0.0591382,0.14297 -0.064525,0.17425 -0.064842,0.37706 -2.5839e-4,0.16592 0.007702,0.23539 0.0318588,0.27799 0.0177127,0.0312 0.0322044,0.0681 0.0322044,0.0817 0,0.0469 0.20286295,0.30701 0.30409326,0.39001 0.19209188,0.15754 0.60666178,0.29777 0.91186878,0.30845 0.047539,10e-4 0.066139,-0.007 0.066139,-0.0267 z m 0.5942511,-0.02 c 0.030225,-0.0138 0.069711,-0.0253 0.087747,-0.0253 0.018037,0 0.099799,-0.0299 0.1816969,-0.0662 0.2582915,-0.11483 0.4981061,-0.36754 0.5939866,-0.62581 0.05522,-0.14881 0.049454,-0.52977 -0.00981,-0.64803 -0.024018,-0.048 -0.043667,-0.0917 -0.043667,-0.0977 0,-0.007 -0.034316,-0.0604 -0.076257,-0.12158 -0.093971,-0.13713 -0.1314318,-0.14175 -0.2348706,-0.0289 -0.041545,0.0454 -0.075537,0.09 -0.075537,0.0992 0,0.009 -0.018316,0.0319 -0.040702,0.0504 -0.022387,0.0185 -0.040701,0.0412 -0.040701,0.0505 0,0.009 -0.021833,0.0435 -0.048515,0.0759 -0.097174,0.11834 -0.079061,0.17973 0.053034,0.17973 0.069212,0 0.1782101,0.0909 0.2099448,0.1751 0.050286,0.13348 -0.023092,0.27721 -0.1654209,0.32414 -0.062277,0.0205 -0.089204,0.0205 -0.1586892,2.1e-4 -0.046026,-0.0138 -0.091008,-0.0354 -0.099961,-0.0486 -0.00894,-0.0138 -0.041011,-0.0241 -0.071243,-0.0241 -0.04885,0 -0.06474,0.0181 -0.1427355,0.16243 -0.1248404,0.231 -0.2675311,0.47492 -0.289931,0.49559 -0.021749,0.0201 -0.025685,0.0909 -0.00605,0.10862 0.021433,0.0196 0.3183104,-0.009 0.3776792,-0.0361 z m -0.377116,-1.02428 c 0.1430244,-0.26808 0.29636,-0.46492 0.5338284,-0.68526 0.1514586,-0.1405 0.1983614,-0.20901 0.1431696,-0.20901 -0.011929,0 -0.073727,-0.0219 -0.1373677,-0.0486 -0.1566431,-0.0656 -0.3958206,-0.10402 -0.6651856,-0.10699 -0.2592085,-0.003 -0.4494843,0.0246 -0.7275424,0.10456 -0.1749762,0.0503 -0.1984205,0.062 -0.1984205,0.0994 0,0.028 0.032144,0.0666 0.09422,0.11294 0.1092913,0.0817 0.2643477,0.21821 0.3229725,0.28411 0.099468,0.11173 0.193333,0.2306 0.193333,0.24472 0,0.008 0.027473,0.05 0.061053,0.0923 0.033578,0.0423 0.061053,0.0839 0.061053,0.0925 0,0.009 0.028135,0.0701 0.062523,0.1365 0.041476,0.0801 0.07402,0.12024 0.096667,0.11943 0.023021,-8.9e-4 0.075041,-0.078 0.159697,-0.23666 z"
       id="path867"
       inkscape:connector-curvature="0"
       sodipodi:nodetypes="csccsccccscsccccccscccsccccsccccccccccccsccccccccccsscccccccccccccccccccccccccccccccscccccccsccccccscccccscccsccscscsccccscccccccscccsccscscccc" />
    <ellipse
       style="color:#000000;clip-rule:nonzero;display:inline;overflow:visible;visibility:visible;opacity:1;isolation:auto;mix-blend-mode:normal;color-interpolation:sRGB;color-interpolation-filters:linearRGB;solid-color:#000000;solid-opacity:1;vector-effect:none;fill:#362b21;fill-opacity:0.94117647;fill-rule:evenodd;stroke:none;stroke-width:0.01943573;stroke-linecap:butt;stroke-linejoin:miter;stroke-miterlimit:4;stroke-dasharray:none;stroke-dashoffset:0;stroke-opacity:1;marker:none;paint-order:normal;color-rendering:auto;image-rendering:auto;shape-rendering:auto;text-rendering:auto;enable-background:accumulate;font-variant-east_asian:normal"
       id="path823"
       cx="1.0748698"
       cy="292.22101"
       rx="0.28938803"
       ry="0.28111979" />
    <ellipse
       ry="0.28111979"
       rx="0.28938803"
       cy="292.22101"
       cx="2.7946615"
       id="ellipse848"
       style="color:#000000;clip-rule:nonzero;display:inline;overflow:visible;visibility:visible;opacity:1;isolation:auto;mix-blend-mode:normal;color-interpolation:sRGB;color-interpolation-filters:linearRGB;solid-color:#000000;solid-opacity:1;vector-effect:none;fill:#362b21;fill-opacity:0.94117647;fill-rule:evenodd;stroke:none;stroke-width:0.01943573;stroke-linecap:butt;stroke-linejoin:miter;stroke-miterlimit:4;stroke-dasharray:none;stroke-dashoffset:0;stroke-opacity:1;marker:none;paint-order:normal;color-rendering:auto;image-rendering:auto;shape-rendering:auto;text-rendering:auto;enable-background:accumulate" />
    <path
       style="fill:#0e161d;fill-opacity:1;stroke:none;stroke-width:0.14947252;stroke-miterlimit:4;stroke-dasharray:none;stroke-opacity:1"
       d="m 3.9762187,290.83047 c -0.3505543,0.0375 -0.7323476,0.0788 -1.0154999,0.30866 -0.3874156,0.33465 -0.7245067,0.73656 -0.9427746,1.2022 -0.2357431,-0.0477 -0.2882314,-0.31834 -0.3949511,-0.49588 -0.1120125,-0.16609 -0.2749398,-0.28947 -0.4192332,-0.42619 -0.33832868,-0.28321 -0.74937882,-0.49143 -1.18884936,-0.55302 -0.19366916,0.0158 -0.04103895,0.17401 0.0663489,0.18859 0.22973412,0.1164 0.41102225,0.30255 0.61170521,0.46014 0.16254768,0.13587 0.2902875,0.30804 0.38268885,0.49739 0.2623813,0.38999 0.5261502,0.77963 0.7647066,1.18471 0.1487872,0.16926 0.3659949,-0.0143 0.4149965,-0.17975 0.2211839,-0.39396 0.470496,-0.77794 0.6127366,-1.20997 0.2242175,-0.3501 0.5174684,-0.70024 0.9339916,-0.81553 0.036538,-0.0486 0.2511048,-0.0687 0.1741339,-0.16135 z"
       id="path822"
       inkscape:connector-curvature="0" />
  </g>
</svg>
