<?xml version="1.0" encoding="UTF-8" standalone="no"?>
<!-- Created with Inkscape (http://www.inkscape.org/) -->

<svg
   xmlns:dc="http://purl.org/dc/elements/1.1/"
   xmlns:cc="http://creativecommons.org/ns#"
   xmlns:rdf="http://www.w3.org/1999/02/22-rdf-syntax-ns#"
   xmlns:svg="http://www.w3.org/2000/svg"
   xmlns="http://www.w3.org/2000/svg"
   xmlns:sodipodi="http://sodipodi.sourceforge.net/DTD/sodipodi-0.dtd"
   xmlns:inkscape="http://www.inkscape.org/namespaces/inkscape"
   width="15"
   height="13"
   viewBox="0 0 3.9687498 3.4395832"
   version="1.1"
   id="svg8"
   inkscape:version="0.92.3 (2405546, 2018-03-11)"
   sodipodi:docname="love.svg">
  <defs
     id="defs2" />
  <sodipodi:namedview
     id="base"
     pagecolor="#ffffff"
     bordercolor="#666666"
     borderopacity="1.0"
     inkscape:pageopacity="0.0"
     inkscape:pageshadow="2"
     inkscape:zoom="31.678384"
     inkscape:cx="12.907459"
     inkscape:cy="5.6687476"
     inkscape:document-units="mm"
     inkscape:current-layer="layer1"
     showgrid="false"
     inkscape:window-width="1920"
     inkscape:window-height="1025"
     inkscape:window-x="0"
     inkscape:window-y="27"
     inkscape:window-maximized="1"
     units="px" />
  <metadata
     id="metadata5">
    <rdf:RDF>
      <cc:Work
         rdf:about="">
        <dc:format>image/svg+xml</dc:format>
        <dc:type
           rdf:resource="http://purl.org/dc/dcmitype/StillImage" />
        <dc:title></dc:title>
      </cc:Work>
    </rdf:RDF>
  </metadata>
  <g
     inkscape:label="Layer 1"
     inkscape:groupmode="layer"
     id="layer1"
     transform="translate(0,-293.56043)">
    <path
       style="color:#000000;clip-rule:nonzero;display:inline;overflow:visible;visibility:visible;opacity:1;isolation:auto;mix-blend-mode:normal;color-interpolation:sRGB;color-interpolation-filters:linearRGB;solid-color:#000000;solid-opacity:1;vector-effect:none;fill:#e41c1c;fill-opacity:1;fill-rule:evenodd;stroke:none;stroke-width:0.26986328;stroke-linecap:round;stroke-linejoin:round;stroke-miterlimit:4;stroke-dasharray:none;stroke-dashoffset:0;stroke-opacity:1;marker:none;color-rendering:auto;image-rendering:auto;shape-rendering:auto;text-rendering:auto;enable-background:accumulate"
       d="m 1.2017437,293.63523 c -0.36892869,-0.0145 -0.6987488,0.18209 -0.9097261,0.45353 -0.21245814,0.27337 -0.31803806,0.65227 -0.15870405,0.99473 0.14742464,0.31687 0.47739954,0.67623 0.8273859,1.02195 0.34998645,0.34571 0.70453665,0.65137 0.92831905,0.79618 a 0.22189225,0.22189225 0 0 0 0.2629573,-0.0159 c 0.327195,-0.27261 0.980343,-0.89601 1.3353721,-1.25238 0.1981875,-0.19893 0.3430903,-0.43179 0.4024045,-0.68527 0.058637,-0.25059 0.023116,-0.52333 -0.1241736,-0.76033 -0.3344398,-0.61645 -1.2160357,-0.73971 -1.7151995,-0.25365 -0.042732,0.0291 -0.047626,0.0502 -0.068395,0.0777 -0.2069062,-0.21916 -0.4721103,-0.37796 -0.78024,-0.37654 z"
       id="path815"
       inkscape:connector-curvature="0" />
    <path
       style="opacity:1;vector-effect:none;fill:#ab1b35;fill-opacity:1;fill-rule:evenodd;stroke:none;stroke-width:0.26986328;stroke-linecap:round;stroke-linejoin:round;stroke-miterlimit:4;stroke-dasharray:none;stroke-dashoffset:0;stroke-opacity:1;marker:none"
       d="m 3.866962,295.03537 -0.5111315,0.4089 -0.3446439,0.32839 -0.3896712,0.22436 -0.2442069,0.29533 -0.1913995,0.39 -0.045433,0.17606 -0.068151,0.0738 0.1590184,-0.10799 0.3634708,-0.34076 0.3260074,-0.28397 0.5258779,-0.51681 0.2101315,-0.22717 0.1646976,-0.31236 z"
       id="path846"
       inkscape:connector-curvature="0"
       sodipodi:nodetypes="ccccccccccccccc" />
    <path
       style="opacity:1;vector-effect:none;fill:#e2988f;fill-opacity:1;fill-rule:evenodd;stroke:none;stroke-width:0.26986328;stroke-linecap:round;stroke-linejoin:round;stroke-miterlimit:4;stroke-dasharray:none;stroke-dashoffset:0;stroke-opacity:1;marker:none"
       d="m 0.46510198,294.26298 c 0.0941946,-0.0997 0.1469926,-0.25533 0.29456478,-0.29004 0.14087241,-0.0479 0.29032854,-0.0768 0.43925084,-0.0739 0.1106973,0.0689 -0.1005932,0.16377 -0.1741409,0.15826 -0.1269916,0.0134 -0.25035363,0.0549 -0.34136997,0.14814 -0.0671095,0.0516 -0.16312914,0.28636 -0.20534136,0.0928 l -0.003772,-0.0126 z"
       id="path862"
       inkscape:connector-curvature="0" />
    <path
       style="opacity:1;vector-effect:none;fill:#e2988f;fill-opacity:1;fill-rule:evenodd;stroke:none;stroke-width:0.26986328;stroke-linecap:round;stroke-linejoin:round;stroke-miterlimit:4;stroke-dasharray:none;stroke-dashoffset:0;stroke-opacity:1;marker:none"
       d="m 2.1631921,294.21756 c 0.07503,-0.0966 0.1398855,-0.20758 0.246787,-0.27305 0.046988,-0.0295 0.1018987,-0.0426 0.1566672,-0.0472 0.093777,-0.0149 0.1854299,-0.0569 0.281949,-0.0449 0.028323,0.006 0.091699,0.0242 0.070565,0.0607 -0.032435,0.0637 -0.1067937,0.0858 -0.1723588,0.096 -0.061209,0.0101 -0.1239592,0.0148 -0.1825655,0.0363 -0.1036549,0.0246 -0.1771447,0.10812 -0.2420752,0.18687 -0.027027,0.0285 -0.048153,0.0651 -0.081745,0.0862 -0.032416,0.0189 -0.055695,-0.019 -0.060625,-0.0466 -0.00561,-0.018 -0.00913,-0.0368 -0.0166,-0.0544 z"
       id="path869"
       inkscape:connector-curvature="0" />
  </g>
</svg>
