<?xml version="1.0" encoding="UTF-8" standalone="no"?>
<!-- Created with Inkscape (http://www.inkscape.org/) -->

<svg
   xmlns:dc="http://purl.org/dc/elements/1.1/"
   xmlns:cc="http://creativecommons.org/ns#"
   xmlns:rdf="http://www.w3.org/1999/02/22-rdf-syntax-ns#"
   xmlns:svg="http://www.w3.org/2000/svg"
   xmlns="http://www.w3.org/2000/svg"
   xmlns:sodipodi="http://sodipodi.sourceforge.net/DTD/sodipodi-0.dtd"
   xmlns:inkscape="http://www.inkscape.org/namespaces/inkscape"
   width="23"
   height="23"
   viewBox="0 0 6.0854167 6.085418"
   version="1.1"
   id="svg8"
   inkscape:version="0.92.3 (2405546, 2018-03-11)"
   sodipodi:docname="symbol-wheat.svg"
   inkscape:export-filename="/home/sven/ideaprojects/pixgame/atlas/src/bunny.png"
   inkscape:export-xdpi="96"
   inkscape:export-ydpi="96">
  <defs
     id="defs2" />
  <sodipodi:namedview
     id="base"
     pagecolor="#808080"
     bordercolor="#666666"
     borderopacity="1.0"
     inkscape:pageopacity="0"
     inkscape:pageshadow="2"
     inkscape:zoom="18.47596"
     inkscape:cx="5.0629241"
     inkscape:cy="5.4727258"
     inkscape:document-units="mm"
     inkscape:current-layer="layer1"
     showgrid="false"
     inkscape:measure-start="0,0"
     inkscape:measure-end="0,0"
     units="px"
     inkscape:window-width="1920"
     inkscape:window-height="1025"
     inkscape:window-x="0"
     inkscape:window-y="27"
     inkscape:window-maximized="1"
     inkscape:snap-global="false" />
  <metadata
     id="metadata5">
    <rdf:RDF>
      <cc:Work
         rdf:about="">
        <dc:format>image/svg+xml</dc:format>
        <dc:type
           rdf:resource="http://purl.org/dc/dcmitype/StillImage" />
        <dc:title></dc:title>
      </cc:Work>
    </rdf:RDF>
  </metadata>
  <g
     inkscape:label="Layer 1"
     inkscape:groupmode="layer"
     id="layer1"
     transform="translate(0,-290.9145)">
    <path
       style="fill:#e1ba6d;fill-opacity:1;stroke:#000000;stroke-width:0.17453982;stroke-miterlimit:4;stroke-dasharray:none;stroke-opacity:1"
       d="m 5.7930238,291.27877 c -0.02163,-0.0233 -0.038996,-0.026 -0.050867,-0.0295 -0.012321,-0.002 -0.022373,-0.004 -0.031877,-0.006 -0.019967,-10e-4 -0.039759,-10e-4 -0.06264,2.8e-4 -0.045841,0.002 -0.1020274,0.01 -0.1635529,0.0199 -0.1229727,0.0197 -0.2645516,0.0505 -0.36901,0.0849 -0.628119,0.20674 -0.9841277,0.6576 -1.0901213,1.37111 l -0.035691,0.24089 a 0.08802107,0.08802107 0 0 0 0.093481,0.10092 l 0.1540092,-0.0117 c 0.7199359,-0.0538 1.2619369,-0.45187 1.475598,-1.09201 0.029707,-0.089 0.05914,-0.23061 0.08075,-0.3591 0.010756,-0.0641 0.019361,-0.12418 0.023898,-0.1719 0.00235,-0.0241 0.00391,-0.0446 0.00372,-0.0638 -1.487e-4,-0.01 -2.562e-4,-0.0196 -0.00235,-0.0299 -0.00196,-0.0117 0.00172,-0.0258 -0.025385,-0.055 z m -2.6691881,0.0937 a 0.08802107,0.08802107 0 0 0 -0.1305998,0.006 l -0.1147002,0.141 c -0.2697851,0.33139 -0.4098836,0.68638 -0.4109846,1.04904 -0.00109,0.36264 0.1363104,0.72843 0.4028197,1.0837 0.055697,0.0743 0.110163,0.14726 0.112764,0.15098 0.019361,0.0268 0.066024,0.0446 0.094733,0.0407 0.028729,-0.004 0.043788,-0.0137 0.057164,-0.0237 0.026636,-0.0196 0.045978,-0.0403 0.068312,-0.0671 0.044648,-0.0538 0.095104,-0.12868 0.1473404,-0.21467 0.104472,-0.17191 0.2129571,-0.3832 0.2620405,-0.54096 0.087771,-0.2822 0.088455,-0.54147 0.00185,-0.8198 -0.07895,-0.25359 -0.2481221,-0.56319 -0.4023817,-0.71746 z m 2.4890609,2.48906 c -0.2508756,-0.25087 -0.7442528,-0.4616 -1.0993012,-0.46942 -0.3557075,-0.008 -0.8218069,0.17738 -1.1290372,0.43825 l -0.1120796,0.095 a 0.08802107,0.08802107 0 0 0 -0.00528,0.12947 l 0.077093,0.077 c 0.236916,0.23691 0.6854926,0.4442 1.0257034,0.4757 0.3790582,0.035 0.8341824,-0.1281 1.1817875,-0.41112 l 0.1426859,-0.11617 a 0.08802107,0.08802107 0 0 0 0.00665,-0.13064 z m -0.9980169,1.17088 a 0.08802107,0.08802107 0 0 0 -0.00743,-0.006 l -0.099641,-0.0739 a 0.08802107,0.08802107 0 0 0 -1.486e-4,-1.6e-4 c -0.3195922,-0.23693 -0.5996425,-0.38278 -0.877352,-0.43691 -0.2776996,-0.0542 -0.549145,-0.0137 -0.8363884,0.10932 -0.1729205,0.0737 -0.3247003,0.16643 -0.5336874,0.3247 l -0.095632,0.0724 a 0.08802107,0.08802107 0 0 0 -0.00919,0.1324 l 0.085991,0.0861 c 0.2270614,0.22709 0.6693583,0.4306 1.0099583,0.47046 0.3819995,0.0448 0.8530918,-0.12536 1.2089029,-0.42075 l 0.1508411,-0.12516 a 0.08802107,0.08802107 0 0 0 0.00391,-0.1324 z m -2.575396,-2.57355 a 0.08802107,0.08802107 0 0 0 -0.1313626,0.006 l -0.1245959,0.1502 c -0.076154,0.0919 -0.1788854,0.25005 -0.2413398,0.37019 -0.2637302,0.50728 -0.239785,1.0129 0.068644,1.53913 0.063794,0.10874 0.1509389,0.23304 0.2152883,0.29887 l 0.093071,0.095 a 0.08802107,0.08802107 0 0 0 0.1330835,-0.008 l 0.072438,-0.0956 c 0.4218816,-0.5571 0.5447937,-1.04883 0.3761424,-1.56128 -0.068507,-0.20808 -0.2239285,-0.49104 -0.3706098,-0.67812 l -1.447e-4,-1.4e-4 -0.084622,-0.10835 a 0.08802107,0.08802107 0 0 0 -0.00587,-0.006 z m 1.472246,3.67698 a 0.08802107,0.08802107 0 0 0 -0.00684,-0.006 l -0.1102021,-0.0833 c -0.3844422,-0.29096 -0.7514007,-0.44388 -1.1201428,-0.44538 -0.3687402,-10e-4 -0.7306354,0.14883 -1.1033827,0.43737 l -0.1202397,0.0932 a 0.08802107,0.08802107 0 0 0 -0.00215,0.13728 l 0.140339,0.11656 c 0.4335433,0.35947 0.9921852,0.51458 1.4500961,0.38591 0.2367127,-0.0665 0.5235062,-0.21706 0.713095,-0.37439 l 0.155652,-0.12927 a 0.08802107,0.08802107 0 0 0 0.00391,-0.1324 z m -2.57539793,-2.57353 a 0.08802107,0.08802107 0 0 0 -0.1315581,0.004 l -0.12854636,0.15508 c -0.1578619,0.19029 -0.32037634,0.49768 -0.37892136,0.722 -0.10478494,0.40148 -0.0146676,0.83808 0.24775244,1.24867 0.054309,0.0851 0.13050203,0.18657 0.18512397,0.24335 a 0.08802107,0.08802107 0 0 0 1.4472e-4,1.5e-4 l 0.0816493,0.0853 a 0.08802107,0.08802107 0 0 0 0.13279017,-0.006 l 0.0819037,-0.10521 1.506e-4,-1.8e-4 c 0.2911097,-0.37294 0.4439885,-0.73932 0.4453712,-1.10963 0.00132,-0.37038 -0.1488267,-0.73693 -0.4373588,-1.1098 l -0.0929924,-0.12008 a 0.08802107,0.08802107 0 0 0 -0.005867,-0.006 z"
       id="path2855"
       inkscape:connector-curvature="0" />
  </g>
</svg>
