<?xml version="1.0" encoding="UTF-8" standalone="no"?>
<!-- Created with Inkscape (http://www.inkscape.org/) -->

<svg
   xmlns:dc="http://purl.org/dc/elements/1.1/"
   xmlns:cc="http://creativecommons.org/ns#"
   xmlns:rdf="http://www.w3.org/1999/02/22-rdf-syntax-ns#"
   xmlns:svg="http://www.w3.org/2000/svg"
   xmlns="http://www.w3.org/2000/svg"
   xmlns:sodipodi="http://sodipodi.sourceforge.net/DTD/sodipodi-0.dtd"
   xmlns:inkscape="http://www.inkscape.org/namespaces/inkscape"
   width="18"
   height="17"
   viewBox="0 0 4.7624997 4.4979165"
   version="1.1"
   id="svg8"
   inkscape:version="0.92.3 (2405546, 2018-03-11)"
   sodipodi:docname="symbol-poop.svg">
  <defs
     id="defs2" />
  <sodipodi:namedview
     id="base"
     pagecolor="#ffffff"
     bordercolor="#666666"
     borderopacity="1.0"
     inkscape:pageopacity="0.0"
     inkscape:pageshadow="2"
     inkscape:zoom="31.678384"
     inkscape:cx="-1.6928985"
     inkscape:cy="3.1288282"
     inkscape:document-units="mm"
     inkscape:current-layer="layer1"
     showgrid="false"
     inkscape:window-width="1920"
     inkscape:window-height="1025"
     inkscape:window-x="0"
     inkscape:window-y="27"
     inkscape:window-maximized="1"
     inkscape:snap-global="false"
     units="px" />
  <metadata
     id="metadata5">
    <rdf:RDF>
      <cc:Work
         rdf:about="">
        <dc:format>image/svg+xml</dc:format>
        <dc:type
           rdf:resource="http://purl.org/dc/dcmitype/StillImage" />
        <dc:title />
      </cc:Work>
    </rdf:RDF>
  </metadata>
  <g
     inkscape:label="Layer 1"
     inkscape:groupmode="layer"
     id="layer1"
     transform="translate(0,-292.5021)">
    <path
       style="opacity:1;vector-effect:none;fill:#8d562d;fill-opacity:1;fill-rule:evenodd;stroke:none;stroke-width:0.11649929px;stroke-linecap:butt;stroke-linejoin:miter;stroke-miterlimit:4;stroke-dasharray:none;stroke-dashoffset:0;stroke-opacity:1"
       d="m 1.8691302,292.64615 c 0.1695376,-0.052 0.6983677,0.16954 0.8748908,0.33135 0.1765231,0.16183 0.6310218,0.32633 0.4517094,0.56688 -0.095248,0.12771 -0.05721,0.15467 -0.05721,0.15467 0,0 0.5105505,0.15334 0.5546814,0.32987 0.044132,0.17653 0.00772,0.56419 0.00772,0.56419 0,0 0.2499212,0.0742 0.3894523,0.30372 0.1135268,0.28677 0.029423,0.559 0.029423,0.559 0,0 0.5589895,0.23535 0.5884097,0.48543 0.029424,0.25007 -0.1323914,0.90935 -0.5589895,0.90935 -0.4265974,0 -1.4416054,0.077 -1.6328388,0.0917 -0.1912333,0.0152 -1.0738488,-0.0593 -1.60341797,-0.11812 -0.52956932,-0.0588 -0.72080268,-0.19152 -0.76493346,-0.3828 -0.0441308,-0.19123 -0.11768207,-0.4413 0.0441307,-0.60311 0.16181283,-0.16181 0.5589898,-0.25007 0.5589898,-0.25007 0,0 -0.13239236,-0.25008 -0.13239236,-0.35305 0,-0.10293 -0.0294205,-0.25007 0.10297187,-0.38247 0.13239221,-0.13242 0.52956932,-0.35304 0.52956932,-0.35304 0,0 -0.2353642,-0.2942 -0.117682,-0.41189 0.117682,-0.11768 0.397177,-0.38247 0.397177,-0.38247 l 0.3971768,-0.10292 c 0,0 -0.1912332,-0.0882 -0.1323914,-0.20595 0.058841,-0.11768 0.2674616,-0.33225 0.2353641,-0.4266 -0.011296,-0.18276 -0.1202058,-0.2092 -0.1202058,-0.2092 z"
       id="path956"
       inkscape:connector-curvature="0"
       sodipodi:nodetypes="ccsccccccsscsccsscsccsccc" />
    <ellipse
       style="color:#000000;clip-rule:nonzero;display:inline;overflow:visible;visibility:visible;opacity:1;isolation:auto;mix-blend-mode:normal;color-interpolation:sRGB;color-interpolation-filters:linearRGB;solid-color:#000000;solid-opacity:1;vector-effect:none;fill:#ffffff;fill-opacity:1;fill-rule:evenodd;stroke:none;stroke-width:0.23516649;stroke-linecap:round;stroke-linejoin:round;stroke-miterlimit:4;stroke-dasharray:none;stroke-dashoffset:0;stroke-opacity:1;marker:none;color-rendering:auto;image-rendering:auto;shape-rendering:auto;text-rendering:auto;enable-background:accumulate"
       id="path935"
       cx="1.8503721"
       cy="295.42508"
       rx="0.55642074"
       ry="0.76639074" />
    <ellipse
       ry="0.74968636"
       rx="0.54429293"
       cy="295.49719"
       cx="3.0398419"
       id="ellipse939"
       style="color:#000000;clip-rule:nonzero;display:inline;overflow:visible;visibility:visible;opacity:1;isolation:auto;mix-blend-mode:normal;color-interpolation:sRGB;color-interpolation-filters:linearRGB;solid-color:#000000;solid-opacity:1;vector-effect:none;fill:#ffffff;fill-opacity:1;fill-rule:evenodd;stroke:none;stroke-width:0.23004077;stroke-linecap:round;stroke-linejoin:round;stroke-miterlimit:4;stroke-dasharray:none;stroke-dashoffset:0;stroke-opacity:1;marker:none;color-rendering:auto;image-rendering:auto;shape-rendering:auto;text-rendering:auto;enable-background:accumulate" />
    <circle
       style="color:#000000;clip-rule:nonzero;display:inline;overflow:visible;visibility:visible;opacity:1;isolation:auto;mix-blend-mode:normal;color-interpolation:sRGB;color-interpolation-filters:linearRGB;solid-color:#000000;solid-opacity:1;vector-effect:none;fill:#000000;fill-opacity:1;fill-rule:evenodd;stroke:none;stroke-width:0.31574178;stroke-linecap:round;stroke-linejoin:round;stroke-miterlimit:4;stroke-dasharray:none;stroke-dashoffset:0;stroke-opacity:1;marker:none;color-rendering:auto;image-rendering:auto;shape-rendering:auto;text-rendering:auto;enable-background:accumulate"
       id="path941"
       cx="1.8412906"
       cy="295.57095"
       r="0.25372106" />
    <circle
       r="0.25372106"
       cy="295.61343"
       cx="3.0502634"
       id="circle943"
       style="color:#000000;clip-rule:nonzero;display:inline;overflow:visible;visibility:visible;opacity:1;isolation:auto;mix-blend-mode:normal;color-interpolation:sRGB;color-interpolation-filters:linearRGB;solid-color:#000000;solid-opacity:1;vector-effect:none;fill:#000000;fill-opacity:1;fill-rule:evenodd;stroke:none;stroke-width:0.31574178;stroke-linecap:round;stroke-linejoin:round;stroke-miterlimit:4;stroke-dasharray:none;stroke-dashoffset:0;stroke-opacity:1;marker:none;color-rendering:auto;image-rendering:auto;shape-rendering:auto;text-rendering:auto;enable-background:accumulate" />
  </g>
</svg>
