<?xml version="1.0" encoding="UTF-8" standalone="no"?>
<!-- Created with Inkscape (http://www.inkscape.org/) -->

<svg
   xmlns:dc="http://purl.org/dc/elements/1.1/"
   xmlns:cc="http://creativecommons.org/ns#"
   xmlns:rdf="http://www.w3.org/1999/02/22-rdf-syntax-ns#"
   xmlns:svg="http://www.w3.org/2000/svg"
   xmlns="http://www.w3.org/2000/svg"
   xmlns:sodipodi="http://sodipodi.sourceforge.net/DTD/sodipodi-0.dtd"
   xmlns:inkscape="http://www.inkscape.org/namespaces/inkscape"
   width="32"
   height="31"
   viewBox="0 0 8.4666664 8.2020836"
   version="1.1"
   id="svg906"
   inkscape:version="0.92.3 (2405546, 2018-03-11)"
   sodipodi:docname="tool-hoe.svg">
  <defs
     id="defs900" />
  <sodipodi:namedview
     id="base"
     pagecolor="#ffffff"
     bordercolor="#666666"
     borderopacity="1.0"
     inkscape:pageopacity="0.0"
     inkscape:pageshadow="2"
     inkscape:zoom="22.4"
     inkscape:cx="0.46366847"
     inkscape:cy="16.021715"
     inkscape:document-units="mm"
     inkscape:current-layer="layer1"
     showgrid="false"
     inkscape:window-width="1920"
     inkscape:window-height="1025"
     inkscape:window-x="0"
     inkscape:window-y="27"
     inkscape:window-maximized="1"
     inkscape:measure-start="0,0"
     inkscape:measure-end="0,0"
     inkscape:snap-global="false"
     units="px" />
  <metadata
     id="metadata903">
    <rdf:RDF>
      <cc:Work
         rdf:about="">
        <dc:format>image/svg+xml</dc:format>
        <dc:type
           rdf:resource="http://purl.org/dc/dcmitype/StillImage" />
        <dc:title />
      </cc:Work>
    </rdf:RDF>
  </metadata>
  <g
     inkscape:label="Layer 1"
     inkscape:groupmode="layer"
     id="layer1"
     transform="translate(0,-288.79789)">
    <path
       style="opacity:1;vector-effect:none;fill:#eeeeee;fill-opacity:1;fill-rule:evenodd;stroke:none;stroke-width:0.01567087px;stroke-linecap:butt;stroke-linejoin:miter;stroke-miterlimit:4;stroke-dasharray:none;stroke-dashoffset:0;stroke-opacity:1"
       d="m 0.10441535,292.36638 c 0,0 -0.0113425,-0.484 0.0604493,-0.55665 0.0717879,-0.0725 0.80548067,-0.54479 0.80548067,-0.54479 l 0.75015168,-0.33043 -0.1599638,0.56181 c 0,0 -0.4938739,0.20976 -0.72458864,0.36214 -0.23071496,0.1523 -0.73152929,0.50792 -0.73152921,0.50792 z"
       id="path1499"
       inkscape:connector-curvature="0" />
    <path
       style="opacity:1;vector-effect:none;fill:#da9c5d;fill-opacity:1;fill-rule:evenodd;stroke:none;stroke-width:0.01106261px;stroke-linecap:butt;stroke-linejoin:miter;stroke-miterlimit:4;stroke-dasharray:none;stroke-dashoffset:0;stroke-opacity:1"
       d="m 1.6650541,288.98943 -0.1199755,0.0604 -0.2419972,0.24028 0.028683,0.0347 6.7897884,7.49663 0.092851,0.0123 0.1490042,-0.12217 -0.00786,-0.0781 z"
       id="path1506"
       inkscape:connector-curvature="0" />
    <path
       style="opacity:1;vector-effect:none;fill:#b0b0b0;fill-opacity:1;fill-rule:evenodd;stroke:none;stroke-width:0.01567087px;stroke-linecap:butt;stroke-linejoin:miter;stroke-miterlimit:4;stroke-dasharray:none;stroke-dashoffset:0;stroke-opacity:1"
       d="m 1.9391279,288.96899 c 0,0 -0.2334101,0.13685 -0.3732272,0.25728 -0.1398172,0.12041 -0.2091529,0.27709 -0.2091529,0.27709 0,0 -0.2996459,-0.0606 -0.58989291,0.58387 -0.29024691,0.64454 -0.62499983,1.68232 -0.61152361,1.7603 0.0134735,0.0781 0.30601369,-0.18137 0.65612893,-0.38646 0.35011519,-0.20517 0.90513789,-0.52588 0.90513789,-0.52588 l 0.1826056,-0.80266 -0.00553,-0.0553 -0.1639728,-0.11229 0.2689962,-0.2794 c 0,0 0.2804936,-0.0966 0.2807381,-0.16496 2.421e-4,-0.0681 -0.07279,-0.0959 -0.07279,-0.0959 l -0.1531777,-0.37513 z"
       id="path1481"
       inkscape:connector-curvature="0" />
  </g>
</svg>
