<?xml version="1.0" encoding="UTF-8" standalone="no"?>
<!-- Created with Inkscape (http://www.inkscape.org/) -->

<svg
   xmlns:dc="http://purl.org/dc/elements/1.1/"
   xmlns:cc="http://creativecommons.org/ns#"
   xmlns:rdf="http://www.w3.org/1999/02/22-rdf-syntax-ns#"
   xmlns:svg="http://www.w3.org/2000/svg"
   xmlns="http://www.w3.org/2000/svg"
   xmlns:sodipodi="http://sodipodi.sourceforge.net/DTD/sodipodi-0.dtd"
   xmlns:inkscape="http://www.inkscape.org/namespaces/inkscape"
   width="31"
   height="20"
   viewBox="0 0 8.2020833 5.2916669"
   version="1.1"
   id="svg906"
   inkscape:version="0.92.3 (2405546, 2018-03-11)"
   sodipodi:docname="tool-shovel.svg">
  <defs
     id="defs900" />
  <sodipodi:namedview
     id="base"
     pagecolor="#ffffff"
     bordercolor="#666666"
     borderopacity="1.0"
     inkscape:pageopacity="0.0"
     inkscape:pageshadow="2"
     inkscape:zoom="15.839192"
     inkscape:cx="6.6425169"
     inkscape:cy="5.1787277"
     inkscape:document-units="mm"
     inkscape:current-layer="layer1"
     showgrid="false"
     inkscape:window-width="1920"
     inkscape:window-height="1025"
     inkscape:window-x="0"
     inkscape:window-y="27"
     inkscape:window-maximized="1"
     inkscape:measure-start="0,0"
     inkscape:measure-end="0,0"
     inkscape:snap-global="false"
     units="px" />
  <metadata
     id="metadata903">
    <rdf:RDF>
      <cc:Work
         rdf:about="">
        <dc:format>image/svg+xml</dc:format>
        <dc:type
           rdf:resource="http://purl.org/dc/dcmitype/StillImage" />
        <dc:title></dc:title>
      </cc:Work>
    </rdf:RDF>
  </metadata>
  <g
     inkscape:label="Layer 1"
     inkscape:groupmode="layer"
     id="layer1"
     transform="translate(0,-291.70826)">
    <g
       id="g895"
       transform="matrix(0.86845753,0.19935235,-0.19935235,0.86845753,59.093478,38.77937)">
      <path
         sodipodi:nodetypes="cccccc"
         inkscape:connector-curvature="0"
         id="path1622"
         d="m 6.2299643,291.16033 -2.7087004,2.40407 0.087625,0.16641 0.1314378,0.0788 2.7262256,-2.41847 z"
         style="opacity:1;vector-effect:none;fill:#d79453;fill-opacity:1;fill-rule:evenodd;stroke:none;stroke-width:0.55516869px;stroke-linecap:butt;stroke-linejoin:miter;stroke-miterlimit:4;stroke-dasharray:none;stroke-dashoffset:0;stroke-opacity:1" />
      <path
         inkscape:connector-curvature="0"
         id="path1582"
         d="m 7.2601482,289.81484 c 0,0 -0.4179493,0.3146 -0.5519158,0.44891 -0.046345,0.0662 -0.1730347,0.27343 -0.2005981,0.32421 -0.00347,0.0507 -0.1276395,0.35623 -0.1865016,0.4771 -0.058862,0.1202 -0.00651,0.006 -0.00651,0.006 l -0.491194,0.43373 0.1225285,0.11825 0.1225266,0.1268 c 0,0 0.1958468,-0.14252 0.344812,-0.31335 0.1551597,-0.14001 0.4137345,-0.1371 0.6766118,-0.18973 0.2628774,-0.0526 0.8978117,-0.62238 0.8978117,-0.62238 l -0.056384,-0.0629 -0.4207142,0.31447 c 0,0 -0.241956,0.1705 -0.3318,0.19517 -0.089842,0.0231 -0.2785142,-0.004 -0.4055335,0.008 -0.12702,0.0117 -0.3068606,0.11826 -0.3068606,0.11826 0,0 0.09325,-0.15536 0.1149377,-0.18642 0.021683,-0.031 0.040432,-0.25979 0.068311,-0.33721 0.027881,-0.0775 0.1886707,-0.37872 0.2103568,-0.40663 0.018584,-0.0239 0.3458995,-0.30287 0.4532436,-0.39468 z"
         style="fill:#e63a4a;fill-opacity:1;fill-rule:evenodd;stroke:none;stroke-width:0.55516869px;stroke-linecap:butt;stroke-linejoin:miter;stroke-opacity:1" />
      <path
         inkscape:connector-curvature="0"
         id="path1601"
         d="m 7.2192541,289.81623 -0.2168629,0.16119 0.771412,0.86123 0.2106665,-0.18914 z"
         style="opacity:1;vector-effect:none;fill:#d79453;fill-opacity:1;fill-rule:evenodd;stroke:none;stroke-width:0.55516869px;stroke-linecap:butt;stroke-linejoin:miter;stroke-miterlimit:4;stroke-dasharray:none;stroke-dashoffset:0;stroke-opacity:1" />
      <path
         sodipodi:nodetypes="cccccccccscccccc"
         inkscape:connector-curvature="0"
         id="path1578"
         d="m 3.9391465,293.09372 0.1369088,0.25681 0.1654313,0.0855 c 0,0 -1.3462736,1.08385 -1.363387,1.13519 -0.017092,0.0514 0.068456,0.36511 0.068456,0.36511 l 0.4848865,0.45066 c 0,0 -0.781523,0.78719 -1.528819,1.26069 -0.00572,0.0283 -0.638909,0.23388 -0.94124928,0.23969 -0.47918202,-0.0228 -0.73588671,-0.24525 -0.73588671,-0.24525 0,0 -0.18825007,-0.42785 -0.14831825,-0.81004 0.03993209,-0.38222 0.39931832,-0.96407 0.61609119,-1.19797 0.21677286,-0.23387 1.08386345,-0.97547 1.12949975,-0.96407 0.045637,0.01 0.4848866,0.56477 0.5476367,0.59328 0.062749,0.0283 0.2224788,0.10265 0.3936137,0.005 0.1711353,-0.0971 0.7872274,-0.78152 0.7872274,-0.78152 z"
         style="fill:#b6b6b6;fill-opacity:1;fill-rule:evenodd;stroke:none;stroke-width:0.72284341px;stroke-linecap:butt;stroke-linejoin:miter;stroke-opacity:1" />
    </g>
  </g>
</svg>
