<?xml version="1.0" encoding="UTF-8" standalone="no"?>
<!-- Created with Inkscape (http://www.inkscape.org/) -->

<svg
   xmlns:dc="http://purl.org/dc/elements/1.1/"
   xmlns:cc="http://creativecommons.org/ns#"
   xmlns:rdf="http://www.w3.org/1999/02/22-rdf-syntax-ns#"
   xmlns:svg="http://www.w3.org/2000/svg"
   xmlns="http://www.w3.org/2000/svg"
   xmlns:sodipodi="http://sodipodi.sourceforge.net/DTD/sodipodi-0.dtd"
   xmlns:inkscape="http://www.inkscape.org/namespaces/inkscape"
   width="26"
   height="25"
   viewBox="0 0 6.8791666 6.6145838"
   version="1.1"
   id="svg906"
   inkscape:version="0.92.3 (2405546, 2018-03-11)"
   sodipodi:docname="weapon-sword.svg">
  <defs
     id="defs900" />
  <sodipodi:namedview
     id="base"
     pagecolor="#ffffff"
     bordercolor="#666666"
     borderopacity="1.0"
     inkscape:pageopacity="0.0"
     inkscape:pageshadow="2"
     inkscape:zoom="22.4"
     inkscape:cx="18.447048"
     inkscape:cy="16.278332"
     inkscape:document-units="px"
     inkscape:current-layer="layer1"
     showgrid="false"
     inkscape:window-width="1920"
     inkscape:window-height="1025"
     inkscape:window-x="0"
     inkscape:window-y="27"
     inkscape:window-maximized="1"
     inkscape:measure-start="0,0"
     inkscape:measure-end="0,0"
     inkscape:snap-global="false"
     units="px" />
  <metadata
     id="metadata903">
    <rdf:RDF>
      <cc:Work
         rdf:about="">
        <dc:format>image/svg+xml</dc:format>
        <dc:type
           rdf:resource="http://purl.org/dc/dcmitype/StillImage" />
        <dc:title></dc:title>
      </cc:Work>
    </rdf:RDF>
  </metadata>
  <g
     inkscape:label="Layer 1"
     inkscape:groupmode="layer"
     id="layer1"
     transform="translate(0,-290.38537)">
    <path
       style="fill:#cbcbcb;fill-opacity:1;stroke-width:0.012243"
       d="m 6.7974478,290.43876 c -0.027971,0.005 -0.1071445,0.0393 -0.08039,0.0297 -0.038758,0.0162 -0.094093,0.0392 -0.1624865,0.0665 -0.1368027,0.0545 -0.3258018,0.12548 -0.5358975,0.19014 l -0.8467263,0.26057 a 0.05684573,0.06593371 57.409123 0 0 -0.034036,0.0219 l -1.5489665,1.73295 -3.031e-4,3e-4 c -0.4490465,0.46779 -0.8579352,0.89411 -1.1546214,1.20381 -0.1485733,0.1551 -0.2690857,0.28098 -0.352616,0.3684 -0.041763,0.0437 -0.07426,0.0779 -0.096453,0.10116 -0.011096,0.0116 -0.019601,0.0206 -0.025484,0.0269 -0.00296,0.004 -0.00525,0.006 -0.00702,0.008 -8.861e-4,8.3e-4 -0.00156,0.002 -0.00246,0.003 -4.587e-4,5.1e-4 -9.095e-4,8.3e-4 -0.0018,0.002 -4.594e-4,5.3e-4 -9.641e-4,8.3e-4 -0.00197,0.003 -0.00107,8.3e-4 -0.00747,0.0118 -0.00749,0.0118 a 0.05684573,0.06593371 57.409123 0 0 -5.1e-6,9e-5 c -1.54e-5,3e-5 -0.00626,0.021 -0.00625,0.0211 -4e-6,4e-5 -2.644e-4,0.0111 4.287e-4,0.0151 0.00137,0.009 0.00365,0.0124 0.00543,0.0155 0.00357,0.007 0.00599,0.009 0.00793,0.011 0.00387,0.005 0.00608,0.006 0.00839,0.008 0.00469,0.005 0.00919,0.007 0.014846,0.0105 0.011226,0.008 0.026317,0.0168 0.045006,0.028 0.03738,0.0223 0.088729,0.0518 0.1456877,0.0834 0.1857496,0.1029 0.2129866,0.10063 0.3124364,0.28342 a 0.05684573,0.06593371 57.409123 0 0 0.00225,0.004 c 0.035124,0.0526 0.067812,0.0999 0.092648,0.13431 0.01242,0.0173 0.022775,0.031 0.031013,0.0415 0.00411,0.005 0.00756,0.009 0.011588,0.0136 0.00205,0.003 0.00387,0.005 0.00837,0.008 0.00224,0.002 0.00477,0.005 0.011869,0.008 0.00356,0.002 0.00837,0.005 0.016886,0.005 0.00426,5.5e-4 0.016088,4.1e-4 0.016126,4.1e-4 3.89e-5,-1e-5 0.022397,-0.007 0.02243,-0.007 1.54e-5,-1e-5 0.012684,-0.008 0.0143,-0.009 0.00162,-8.3e-4 0.00231,-0.002 0.00296,-0.002 0.00122,-8.3e-4 0.00176,-0.002 0.00236,-0.002 0.00107,-8.3e-4 0.00186,-0.002 0.00282,-0.004 0.00193,-0.002 0.00428,-0.005 0.00739,-0.007 0.00624,-0.006 0.015217,-0.0145 0.026897,-0.0256 0.023361,-0.0223 0.057548,-0.0548 0.1016592,-0.0962 0.088222,-0.0831 0.2160117,-0.20224 0.3752223,-0.3473 0.3184212,-0.29012 0.7625777,-0.68364 1.2668682,-1.09766 l 1.8224097,-1.4962 a 0.05684573,0.06593371 57.409123 0 0 0.022889,-0.0336 l 0.2428195,-0.79571 c 0.079275,-0.19696 0.1507169,-0.37695 0.2019142,-0.50812 0.025709,-0.0659 0.046299,-0.11947 0.060424,-0.15725 0.00706,-0.0189 0.012481,-0.0337 0.016283,-0.0447 0.00189,-0.006 0.00342,-0.01 0.00475,-0.0145 6.995e-4,-0.002 0.00126,-0.005 0.00208,-0.009 4.173e-4,-0.002 9.095e-4,-0.005 0.00114,-0.01 9.85e-5,-0.003 2.764e-4,-0.007 -7.948e-4,-0.012 -5.205e-4,-0.003 -0.00353,-0.0113 -0.00354,-0.0113 -9.6e-6,-2e-5 -0.01187,-0.0165 -0.011882,-0.0165 -1.42e-5,0 -0.019523,-0.0113 -0.019546,-0.0113 -2.41e-5,-1e-5 -0.010109,-0.003 -0.013594,-0.003 -0.00705,-2.8e-4 -0.010984,6e-5 -0.014069,3.3e-4 z"
       id="path3728"
       inkscape:connector-curvature="0" />
    <path
       style="opacity:1;vector-effect:none;fill:#8787b5;fill-opacity:1;fill-rule:evenodd;stroke:none;stroke-width:0.012243;stroke-linecap:butt;stroke-linejoin:miter;stroke-miterlimit:4;stroke-dasharray:none;stroke-dashoffset:0;stroke-opacity:1"
       d="m 6.8449124,290.4996 -4.4683274,4.26523 0.2807778,0.41257 3.6889663,-3.17489 z"
       id="path3730"
       inkscape:connector-curvature="0" />
    <path
       inkscape:connector-curvature="0"
       style="opacity:1;vector-effect:none;fill:#9f6f40;fill-opacity:1;stroke:none;stroke-width:0.01587103px;stroke-linecap:butt;stroke-linejoin:miter;stroke-miterlimit:4;stroke-dasharray:none;stroke-dashoffset:0;stroke-opacity:1"
       d="m 1.1893168,294.01749 c -0.017036,8.3e-4 -0.033814,0.009 -0.046544,0.0207 l -0.17509998,0.1682 -0.1750065,0.1682 c -0.0260865,0.0251 -0.0282721,0.0627 -0.00488,0.084 l 0.32169508,0.29391 0.2840407,0.25944 -0.3912642,0.46162 -0.40985215,0.48355 -0.0567515,0.008 c -0.26796827,0.0349 -0.49145877,0.2561 -0.51859195,0.51093 -0.0165845963,0.15576 0.0217931,0.27085 0.12504277,0.37157 0.0565676,0.0552 0.12915766,0.0937 0.21522094,0.11557 0.025311,0.007 0.0486881,0.007 0.079495,0.007 0.0308065,10e-6 0.0658018,-0.002 0.0999855,-0.005 0.0960423,-0.009 0.1482161,-0.0225 0.21359869,-0.0552 0.18291564,-0.0915 0.3139705,-0.26247 0.335103,-0.44193 l 0.0064,-0.0541 0.5053145,-0.39611 0.4826802,-0.37825 0.2841386,0.25934 0.3415876,0.26418 c 0.02337,0.0214 0.038855,0.009 0.064955,-0.0165 l 0.1799305,-0.1288 0.1750068,-0.1682 c 0.022926,-0.0221 0.027748,-0.0545 0.011435,-0.0767 l -0.382176,-0.52225 -0.3820858,-0.522 c -0.00388,-0.005 -0.00881,-0.01 -0.014587,-0.0134 l -0.5669421,-0.34449 -0.5668538,-0.34444 c -0.010017,-0.006 -0.022217,-0.009 -0.034997,-0.009 z"
       id="path4170"
       sodipodi:nodetypes="ccccccccccccccccccccccccccccccccc" />
    <path
       style="opacity:1;vector-effect:none;fill:#6e4d48;fill-opacity:1;fill-rule:evenodd;stroke:none;stroke-width:0.01587103px;stroke-linecap:butt;stroke-linejoin:miter;stroke-miterlimit:4;stroke-dasharray:none;stroke-dashoffset:0;stroke-opacity:1"
       d="m 3.0893517,295.72719 -0.3545018,0.2567 -0.6633533,-0.61315 -1.08306166,0.89239 c 0,0 -0.046305,0.33552 -0.15200738,0.42 -0.27012059,0.23055 -0.42144858,0.17964 -0.47998062,0.19977 -0.0585328,0.0201 -0.19767695,-0.0206 -0.19767695,-0.0206 0,0 0.13130361,0.12424 0.34752935,0.098 0.21625283,-0.0259 0.4259794,-0.12728 0.4929956,-0.22349 0.067017,-0.0962 0.098653,-0.34006 0.098653,-0.34006 l 0.9893678,-0.75618 c 0,0 0.598589,0.51339 0.6454012,0.53193 0.046815,0.0186 0.4586692,-0.31104 0.4586692,-0.31104 z"
       id="path4311"
       inkscape:connector-curvature="0"
       sodipodi:nodetypes="cccccccccccccc" />
  </g>
</svg>
