<?xml version="1.0" encoding="UTF-8" standalone="no"?>
<!-- Created with Inkscape (http://www.inkscape.org/) -->

<svg
   xmlns:dc="http://purl.org/dc/elements/1.1/"
   xmlns:cc="http://creativecommons.org/ns#"
   xmlns:rdf="http://www.w3.org/1999/02/22-rdf-syntax-ns#"
   xmlns:svg="http://www.w3.org/2000/svg"
   xmlns="http://www.w3.org/2000/svg"
   xmlns:sodipodi="http://sodipodi.sourceforge.net/DTD/sodipodi-0.dtd"
   xmlns:inkscape="http://www.inkscape.org/namespaces/inkscape"
   width="27"
   height="47"
   viewBox="0 0 7.1437499 12.435416"
   version="1.1"
   id="svg8"
   inkscape:version="0.92.3 (2405546, 2018-03-11)"
   sodipodi:docname="meeple.svg"
   inkscape:export-filename="/home/sven/ideaprojects/pixgame/atlas/src/bunny.png"
   inkscape:export-xdpi="96"
   inkscape:export-ydpi="96">
  <defs
     id="defs2">
    <filter
       inkscape:collect="always"
       style="color-interpolation-filters:sRGB"
       id="filter2797"
       x="-0.059428573"
       width="1.1188571"
       y="-0.24959997"
       height="1.4991999">
      <feGaussianBlur
         inkscape:collect="always"
         stdDeviation="0.13680382"
         id="feGaussianBlur2799" />
    </filter>
  </defs>
  <sodipodi:namedview
     id="base"
     pagecolor="#808080"
     bordercolor="#666666"
     borderopacity="1.0"
     inkscape:pageopacity="0"
     inkscape:pageshadow="2"
     inkscape:zoom="13.074074"
     inkscape:cx="-3.0252318"
     inkscape:cy="23.327274"
     inkscape:document-units="mm"
     inkscape:current-layer="layer1"
     showgrid="false"
     inkscape:measure-start="0,0"
     inkscape:measure-end="0,0"
     units="px"
     inkscape:window-width="1920"
     inkscape:window-height="1025"
     inkscape:window-x="0"
     inkscape:window-y="27"
     inkscape:window-maximized="1"
     inkscape:snap-global="false" />
  <metadata
     id="metadata5">
    <rdf:RDF>
      <cc:Work
         rdf:about="">
        <dc:format>image/svg+xml</dc:format>
        <dc:type
           rdf:resource="http://purl.org/dc/dcmitype/StillImage" />
        <dc:title />
      </cc:Work>
    </rdf:RDF>
  </metadata>
  <g
     inkscape:label="Layer 1"
     inkscape:groupmode="layer"
     id="layer1"
     transform="translate(0,-284.56458)">
    <ellipse
       style="color:#000000;clip-rule:nonzero;display:inline;overflow:visible;visibility:visible;opacity:1;isolation:auto;mix-blend-mode:normal;color-interpolation:sRGB;color-interpolation-filters:linearRGB;solid-color:#000000;solid-opacity:1;vector-effect:none;fill:#000000;fill-opacity:0.50196078;fill-rule:evenodd;stroke:none;stroke-width:4.792768;stroke-linecap:round;stroke-linejoin:round;stroke-miterlimit:4;stroke-dasharray:none;stroke-dashoffset:0;stroke-opacity:1;marker:none;color-rendering:auto;image-rendering:auto;shape-rendering:auto;text-rendering:auto;enable-background:accumulate;filter:url(#filter2797)"
       id="path2737"
       cx="3.6123493"
       cy="296.24109"
       rx="2.7623847"
       ry="0.65771073"
       transform="matrix(0.78622643,0,0,0.78622643,0.7722248,63.333426)" />
    <path
       style="color:#000000;clip-rule:nonzero;display:inline;overflow:visible;visibility:visible;opacity:1;isolation:auto;mix-blend-mode:normal;color-interpolation:sRGB;color-interpolation-filters:linearRGB;solid-color:#000000;solid-opacity:1;vector-effect:none;fill:#0a4c7d;fill-opacity:1;fill-rule:evenodd;stroke:none;stroke-width:0.59379792;stroke-linecap:round;stroke-linejoin:round;stroke-miterlimit:4;stroke-dasharray:none;stroke-dashoffset:0;stroke-opacity:1;marker:none;color-rendering:auto;image-rendering:auto;shape-rendering:auto;text-rendering:auto;enable-background:accumulate"
       d="m 6.3260771,293.58572 c 0,1.81181 -1.2067848,2.82513 -2.6954284,2.82513 -1.4886433,0 -2.69542744,-1.01332 -2.6954278,-2.82513 0.1648958,-1.75328 2.0312628,-3.43673 2.6954278,-3.41722 0.6641651,0.0195 2.512211,1.72248 2.6954284,3.41722 z"
       id="path815"
       inkscape:connector-curvature="0"
       sodipodi:nodetypes="csczc" />
    <ellipse
       style="color:#000000;clip-rule:nonzero;display:inline;overflow:visible;visibility:visible;opacity:1;isolation:auto;mix-blend-mode:normal;color-interpolation:sRGB;color-interpolation-filters:linearRGB;solid-color:#000000;solid-opacity:1;vector-effect:none;fill:#bc876e;fill-opacity:1;fill-rule:evenodd;stroke:none;stroke-width:0.69122773;stroke-linecap:round;stroke-linejoin:round;stroke-miterlimit:4;stroke-dasharray:none;stroke-dashoffset:0;stroke-opacity:1;marker:none;color-rendering:auto;image-rendering:auto;shape-rendering:auto;text-rendering:auto;enable-background:accumulate"
       id="path819"
       cx="3.519449"
       cy="288.71201"
       rx="2.5413337"
       ry="2.6941338" />
    <path
       style="color:#000000;clip-rule:nonzero;display:inline;overflow:visible;visibility:visible;opacity:1;isolation:auto;mix-blend-mode:normal;color-interpolation:sRGB;color-interpolation-filters:linearRGB;solid-color:#000000;solid-opacity:1;vector-effect:none;fill:#ffffff;fill-opacity:1;fill-rule:evenodd;stroke:none;stroke-width:0.21528514;stroke-linecap:round;stroke-linejoin:round;stroke-miterlimit:4;stroke-dasharray:none;stroke-dashoffset:0;stroke-opacity:1;marker:none;color-rendering:auto;image-rendering:auto;shape-rendering:auto;text-rendering:auto;enable-background:accumulate"
       d="m 3.3497858,289.36003 c 3e-7,0.50334 -0.3008669,0.91136 -0.6963404,0.91136 -0.3954733,0 -0.7160678,-0.40802 -0.7160674,-0.91136 0,-0.50331 0.3340426,-0.81132 0.7295156,-0.7115 0.3954733,0.0999 0.6828922,0.20819 0.6828922,0.7115 z"
       id="ellipse837"
       inkscape:connector-curvature="0"
       sodipodi:nodetypes="ssszs" />
    <path
       style="color:#000000;clip-rule:nonzero;display:inline;overflow:visible;visibility:visible;opacity:1;isolation:auto;mix-blend-mode:normal;color-interpolation:sRGB;color-interpolation-filters:linearRGB;solid-color:#000000;solid-opacity:1;vector-effect:none;fill:#ffffff;fill-opacity:1;fill-rule:evenodd;stroke:none;stroke-width:0.21528514;stroke-linecap:round;stroke-linejoin:round;stroke-miterlimit:4;stroke-dasharray:none;stroke-dashoffset:0;stroke-opacity:1;marker:none;color-rendering:auto;image-rendering:auto;shape-rendering:auto;text-rendering:auto;enable-background:accumulate"
       d="m 5.0616031,289.40581 c 0,0.50333 -0.3205947,0.91136 -0.7160676,0.91136 -0.3954737,0 -0.7160697,-0.40803 -0.7160697,-0.91136 0,-0.50333 0.3569577,-0.66471 0.7357972,-0.73124 0.3788394,-0.0664 0.6963401,0.22791 0.6963401,0.73124 z"
       id="ellipse839"
       inkscape:connector-curvature="0"
       sodipodi:nodetypes="scszs" />
    <circle
       style="color:#000000;clip-rule:nonzero;display:inline;overflow:visible;visibility:visible;opacity:1;isolation:auto;mix-blend-mode:normal;color-interpolation:sRGB;color-interpolation-filters:linearRGB;solid-color:#000000;solid-opacity:1;vector-effect:none;fill:#000000;fill-opacity:1;fill-rule:evenodd;stroke:none;stroke-width:0.23567951;stroke-linecap:round;stroke-linejoin:round;stroke-miterlimit:4;stroke-dasharray:none;stroke-dashoffset:0;stroke-opacity:1;marker:none;color-rendering:auto;image-rendering:auto;shape-rendering:auto;text-rendering:auto;enable-background:accumulate"
       id="path847"
       cx="2.6363728"
       cy="289.64578"
       r="0.25531951" />
    <circle
       r="0.25531951"
       cy="289.67667"
       cx="4.3711677"
       id="circle849"
       style="color:#000000;clip-rule:nonzero;display:inline;overflow:visible;visibility:visible;opacity:1;isolation:auto;mix-blend-mode:normal;color-interpolation:sRGB;color-interpolation-filters:linearRGB;solid-color:#000000;solid-opacity:1;vector-effect:none;fill:#000000;fill-opacity:1;fill-rule:evenodd;stroke:none;stroke-width:0.23567951;stroke-linecap:round;stroke-linejoin:round;stroke-miterlimit:4;stroke-dasharray:none;stroke-dashoffset:0;stroke-opacity:1;marker:none;color-rendering:auto;image-rendering:auto;shape-rendering:auto;text-rendering:auto;enable-background:accumulate" />
    <path
       style="opacity:1;vector-effect:none;fill:#a66a5b;fill-opacity:0.73333335;fill-rule:evenodd;stroke:none;stroke-width:0.69122773;stroke-linecap:round;stroke-linejoin:round;stroke-miterlimit:4;stroke-dasharray:none;stroke-dashoffset:0;stroke-opacity:1;marker:none"
       d="m 5.9957687,289.07671 c -0.34384,0.30475 -0.2890652,0.86068 -0.9004078,1.43705 -0.5118,0.47406 -0.9884523,0.69958 -1.574356,0.7297 -0.3531063,0.002 -0.6951316,-0.14393 -1.059242,-0.0921 0.3954821,0.26223 0.9163788,0.26103 1.3752493,0.22857 0.8496505,-0.10123 1.601658,-0.6662 1.9626931,-1.43819 0.1372218,-0.26433 0.2343185,-0.56393 0.1960634,-0.86498 z"
       id="path2312"
       inkscape:connector-curvature="0"
       sodipodi:nodetypes="cccccccc" />
    <path
       style="fill:#e99c50;fill-opacity:1;fill-rule:evenodd;stroke:none;stroke-width:0.04362296px;stroke-linecap:butt;stroke-linejoin:miter;stroke-opacity:1"
       d="m 3.1241128,285.12852 c -0.3002865,0.0599 0.049696,0.18208 -0.2959047,0.28237 -0.2858373,0.11624 -0.7108264,-0.0928 -0.9193727,0.0254 -0.2085462,0.11818 0.291532,0.365 -0.3953872,0.54095 -0.2604713,0.14666 -0.3937119,0.45052 -0.61594491,0.61571 -0.2983078,0.13618 -0.0290901,0.27519 -0.22120375,0.74637 -0.09865,0.25897 -0.1764653,0.55206 -0.0657828,0.8204 0.0706851,0.33558 0.13290058,0.71163 0.39641546,0.95517 0.2498145,0.19181 0.4095036,-0.13929 0.3034684,-0.34559 0.043812,-0.41126 0.2931714,-0.75844 0.4867527,-1.11129 0.1527625,-0.22276 0.413517,-0.37747 0.6718361,-0.41135 0.1989938,0.14217 0.4477998,0.37878 0.4004262,0.0423 0.1506769,-0.29554 0.4643175,0.0166 0.5935312,0.1745 0.072235,0.1123 0.4819915,0.41197 0.2800329,0.0296 -0.021801,-0.33421 0.3663982,-0.34671 0.4824816,-0.0789 0.1223124,0.24611 0.3783982,0.51011 0.6137186,0.14982 0.3550833,-0.11252 0.518437,0.35054 0.7482748,0.53467 0.160963,0.26718 0.3641463,0.5367 0.2776693,0.85845 -0.062278,0.33228 0.3804852,0.54323 0.588092,0.27615 0.1923262,-0.25792 0.093633,-0.59996 0.1010742,-0.89747 -0.014678,-0.30303 -0.069688,-0.60447 -0.1664797,-0.89132 -0.048395,-0.14343 -0.1072372,-0.28321 -0.1767056,-0.41774 -0.069468,-0.13452 -0.1721984,-0.19029 -0.1721634,-0.36664 3.49e-5,-0.17636 0.088425,-0.36215 -0.1059189,-0.44798 -0.1943444,-0.0858 -0.5938102,-0.11949 -0.482942,-0.4375 0.027168,-0.13308 0.066491,-0.4746 -0.1286716,-0.27307 -0.2325072,0.14378 -0.5631431,0.24421 -0.7492538,-0.034 -0.1325133,-0.0928 -0.035875,-0.13459 -0.2785209,-0.26628 -0.2426462,-0.13169 -0.2507917,0.2555 -0.5482566,0.13125 -0.5160258,0.0541 -0.3209783,-0.26384 -0.6212649,-0.20397 z"
       id="path854"
       inkscape:connector-curvature="0"
       sodipodi:nodetypes="zczcccccccccccccccccsszzccczcz" />
    <path
       style="color:#000000;clip-rule:nonzero;display:inline;overflow:visible;visibility:visible;opacity:1;isolation:auto;mix-blend-mode:normal;color-interpolation:sRGB;color-interpolation-filters:linearRGB;solid-color:#000000;solid-opacity:1;vector-effect:none;fill:#162746;fill-opacity:0.55776894;fill-rule:evenodd;stroke:none;stroke-width:0.59379792;stroke-linecap:round;stroke-linejoin:round;stroke-miterlimit:4;stroke-dasharray:none;stroke-dashoffset:0;stroke-opacity:1;marker:none;color-rendering:auto;image-rendering:auto;shape-rendering:auto;text-rendering:auto;enable-background:accumulate"
       d="m 6.0448758,292.55451 c -0.4895917,1.82263 -1.9560141,3.08716 -3.8100019,3.08925 -0.1848409,-0.002 -0.3693564,-0.007 -0.5522949,-0.0335 0.4902456,0.52716 1.1767553,0.81017 1.9387554,0.81017 1.4886436,0 2.7139788,-1.02297 2.6956571,-2.92261 -0.00317,-0.32818 -0.1984183,-0.6444 -0.2721157,-0.94339 z"
       id="path829"
       inkscape:connector-curvature="0"
       sodipodi:nodetypes="cccsscc" />
  </g>
</svg>
