<?xml version="1.0" encoding="UTF-8" standalone="no"?>
<!-- Created with Inkscape (http://www.inkscape.org/) -->

<svg
   xmlns:dc="http://purl.org/dc/elements/1.1/"
   xmlns:cc="http://creativecommons.org/ns#"
   xmlns:rdf="http://www.w3.org/1999/02/22-rdf-syntax-ns#"
   xmlns:svg="http://www.w3.org/2000/svg"
   xmlns="http://www.w3.org/2000/svg"
   xmlns:sodipodi="http://sodipodi.sourceforge.net/DTD/sodipodi-0.dtd"
   xmlns:inkscape="http://www.inkscape.org/namespaces/inkscape"
   width="27"
   height="47"
   viewBox="0 0 7.1437499 12.435416"
   version="1.1"
   id="svg8"
   inkscape:version="0.92.3 (2405546, 2018-03-11)"
   sodipodi:docname="meeple-outline.svg"
   inkscape:export-filename="/home/sven/ideaprojects/pixgame/atlas/src/bunny.png"
   inkscape:export-xdpi="96"
   inkscape:export-ydpi="96">
  <defs
     id="defs2" />
  <sodipodi:namedview
     id="base"
     pagecolor="#808080"
     bordercolor="#666666"
     borderopacity="1.0"
     inkscape:pageopacity="0"
     inkscape:pageshadow="2"
     inkscape:zoom="13.074074"
     inkscape:cx="-3.0252318"
     inkscape:cy="23.327274"
     inkscape:document-units="mm"
     inkscape:current-layer="layer1"
     showgrid="false"
     inkscape:measure-start="0,0"
     inkscape:measure-end="0,0"
     units="px"
     inkscape:window-width="1920"
     inkscape:window-height="1025"
     inkscape:window-x="0"
     inkscape:window-y="27"
     inkscape:window-maximized="1"
     inkscape:snap-global="false" />
  <metadata
     id="metadata5">
    <rdf:RDF>
      <cc:Work
         rdf:about="">
        <dc:format>image/svg+xml</dc:format>
        <dc:type
           rdf:resource="http://purl.org/dc/dcmitype/StillImage" />
        <dc:title></dc:title>
      </cc:Work>
    </rdf:RDF>
  </metadata>
  <g
     inkscape:label="Layer 1"
     inkscape:groupmode="layer"
     id="layer1"
     transform="translate(0,-284.56458)">
    <path
       style="color:#000000;clip-rule:nonzero;display:inline;overflow:visible;visibility:visible;opacity:1;isolation:auto;mix-blend-mode:normal;color-interpolation:sRGB;color-interpolation-filters:linearRGB;solid-color:#000000;solid-opacity:1;vector-effect:none;fill:#d8ecfc;fill-opacity:0.94117647;fill-rule:evenodd;stroke:none;stroke-width:2.24427557;stroke-linecap:round;stroke-linejoin:round;stroke-miterlimit:4;stroke-dasharray:none;stroke-dashoffset:0;stroke-opacity:1;marker:none;color-rendering:auto;image-rendering:auto;shape-rendering:auto;text-rendering:auto;enable-background:accumulate"
       d="M 11.896484 0.47265625 C 11.754157 0.48149277 11.61824 0.50143295 11.488281 0.52734375 C 11.03999 0.61676723 10.468086 0.72418064 9.9941406 1.4101562 C 9.9050101 1.5391614 9.9865266 1.5505273 9.9375 1.6757812 C 9.8675869 1.6726123 9.6076848 1.6992744 9.0644531 1.625 C 8.4361566 1.5390949 7.5766448 1.2107966 6.4082031 1.8730469 C 6.0814843 2.0581935 5.7039357 2.412264 5.5195312 2.8574219 C 5.3756239 3.204819 5.4072766 3.4775623 5.4257812 3.7246094 C 5.3482764 3.7520814 5.4277812 3.7268294 5.3144531 3.7558594 A 1.6352742 1.6352742 0 0 0 4.9179688 3.9160156 C 3.3392934 4.8048986 2.7725197 6.0390365 2.4472656 6.3203125 C 2.5366475 6.2693498 2.6264683 6.2171869 2.7128906 6.1777344 L 2.4179688 6.3535156 C 2.4256501 6.3478058 2.4392985 6.3272024 2.4472656 6.3203125 C 2.0589445 6.5417208 1.6629516 6.8680791 1.4257812 7.34375 C 1.1340204 7.9289085 1.1771206 8.4264322 1.1914062 8.6894531 C 1.2199779 9.215495 1.2839909 9.2780067 1.0429688 9.8691406 A 1.6352742 1.6352742 0 0 0 1.0292969 9.9042969 C 0.63121334 10.949322 0.1699528 12.419707 0.72265625 13.990234 C 0.71840395 13.970198 0.71118761 13.945514 0.70703125 13.925781 L 0.79492188 14.210938 C 0.76436629 14.136858 0.74858165 14.063902 0.72265625 13.990234 C 0.94260056 15.026584 1.2926128 16.459033 2.2695312 17.724609 C 2.7380123 20.480395 4.193538 23.003448 6.2675781 24.791016 C 4.1515132 27.307658 2.2421155 30.392985 1.9082031 33.943359 A 1.6352742 1.6352742 0 0 0 1.9003906 34.095703 C 1.9003914 37.746954 3.1524126 40.776094 5.1738281 42.908203 A 9.967811 2.3732886 0 0 1 6.9648438 42.396484 C 4.862604 40.589177 3.535157 37.784775 3.5351562 34.095703 C 3.8752266 30.479852 6.1310615 26.950007 8.5175781 24.494141 A 9.6050406 10.182553 0 0 1 3.8125 17.201172 C 3.8103454 17.199535 3.8087988 17.198923 3.8066406 17.197266 C 2.8106789 16.276799 2.5737969 14.856224 2.3066406 13.587891 C 1.8883131 12.573692 2.1837902 11.465112 2.5566406 10.486328 C 3.2827395 8.7054904 2.2651156 8.1807117 3.3925781 7.6660156 C 4.2325139 7.0416755 4.7362447 5.8941492 5.7207031 5.3398438 C 8.3169332 4.6748359 6.4266376 3.7415864 7.2148438 3.2949219 C 8.0030501 2.8481817 9.6091233 3.6385509 10.689453 3.1992188 C 11.99566 2.8201699 10.673653 2.3572531 11.808594 2.1308594 C 11.950461 2.1025743 12.062028 2.096619 12.154297 2.1074219 C 12.800181 2.183042 12.449708 3.081257 14.15625 2.9023438 C 15.280527 3.3719499 15.311428 1.908524 16.228516 2.40625 C 17.145602 2.903976 16.780412 3.0613692 17.28125 3.4121094 C 17.984661 4.4636117 19.234514 4.0844361 20.113281 3.5410156 C 20.850904 2.7793274 20.702292 4.0712392 20.599609 4.5742188 C 20.18058 5.7761462 21.689298 5.902279 22.423828 6.2265625 C 23.158356 6.5509594 22.824351 7.2533644 22.824219 7.9199219 C 22.824086 8.5864416 23.212053 8.7982186 23.474609 9.3066406 C 23.737167 9.8151005 23.959668 10.342668 24.142578 10.884766 C 24.508405 11.968923 24.716008 13.108596 24.771484 14.253906 C 24.74336 15.378353 25.117527 16.669716 24.390625 17.644531 C 23.935546 18.229977 23.188867 18.197081 22.681641 17.830078 A 9.6050406 10.182553 0 0 1 22.677734 17.849609 C 22.620249 18.713973 22.317245 19.556902 21.919922 20.322266 C 21.1727 21.920027 19.972875 23.269097 18.521484 24.238281 C 20.158631 25.860071 21.77459 27.989857 22.816406 30.298828 C 22.825856 30.264442 22.838391 30.231757 22.847656 30.197266 C 22.909856 30.44961 22.998933 30.706226 23.09375 30.964844 C 23.198217 31.228824 23.305097 31.492621 23.392578 31.759766 C 23.641611 32.412254 23.8684 33.080422 23.875 33.763672 C 23.875343 33.799229 23.870981 33.831793 23.871094 33.867188 C 23.881114 33.943509 23.901905 34.019379 23.910156 34.095703 C 23.910156 37.80672 22.553979 40.609106 20.429688 42.416016 A 9.967811 2.3732886 0 0 1 22.25 42.953125 C 24.292178 40.820464 25.544922 37.767012 25.544922 34.095703 A 1.6352742 1.6352742 0 0 0 25.535156 33.917969 C 25.518746 33.767066 25.517706 33.792999 25.509766 33.759766 C 25.509728 33.746456 25.509896 33.7655 25.509766 33.75 A 1.6352742 1.6352742 0 0 0 25.509766 33.748047 C 25.509629 33.733927 25.502153 33.726941 25.501953 33.712891 C 25.500977 33.713374 25.490068 33.637887 25.492188 33.654297 C 25.462406 32.670117 25.174102 31.84571 24.919922 31.179688 C 24.919489 31.178388 24.920355 31.177081 24.919922 31.175781 C 24.821962 30.88681 24.718587 30.628279 24.628906 30.402344 C 24.540496 30.16121 24.472581 29.956888 24.435547 29.806641 A 1.6352742 1.6352742 0 0 0 23.919922 28.964844 C 23.062793 27.257868 21.980205 25.74079 20.800781 24.394531 C 21.838521 23.435934 22.762243 22.353276 23.378906 21.046875 C 23.581692 20.653902 23.635073 20.13612 23.789062 19.689453 C 24.479891 19.608443 25.209408 19.255949 25.681641 18.648438 A 1.6352742 1.6352742 0 0 0 25.701172 18.621094 C 26.351829 17.748527 26.477447 16.755802 26.478516 16.007812 C 26.479616 15.259825 26.39711 14.66031 26.40625 14.294922 A 1.6352742 1.6352742 0 0 0 26.404297 14.173828 C 26.34187 12.884042 26.108305 11.59684 25.691406 10.361328 C 25.482817 9.7430945 25.229056 9.1401684 24.927734 8.5566406 C 24.708303 8.1317264 24.525329 7.9255949 24.464844 7.8457031 C 24.476328 7.7541199 24.549586 7.4916154 24.533203 6.9003906 C 24.524368 6.5815579 24.462521 6.1390662 24.205078 5.703125 C 23.947635 5.2671838 23.508988 4.9181671 23.083984 4.7304688 C 22.616986 4.5242962 22.441154 4.4880403 22.228516 4.4238281 C 22.282539 4.1254245 22.365157 3.8715561 22.289062 3.3476562 C 22.261616 3.158678 22.225409 2.9346874 22.058594 2.625 C 21.891779 2.3153126 21.483834 1.86536 20.908203 1.7226562 C 20.332572 1.5799527 19.846452 1.7563532 19.560547 1.9140625 C 19.393138 2.0064078 19.268619 2.1009443 19.158203 2.1972656 C 19.191104 2.1793309 19.221224 2.1706011 19.253906 2.1503906 L 18.939453 2.4042969 C 19.007012 2.3345336 19.080048 2.2654439 19.158203 2.1972656 C 18.92033 2.3269314 18.682908 2.4077802 18.582031 2.4238281 A 1.6352742 1.6352742 0 0 0 18.333984 2.1621094 C 18.47484 2.4113269 18.215631 2.0700636 18.21875 2.0722656 A 1.6352742 1.6352742 0 0 1 18.333984 2.1621094 C 18.325799 2.147627 18.329471 2.1516129 18.318359 2.1328125 C 18.116027 1.7904884 17.609834 1.2954827 17.007812 0.96875 C 16.479917 0.68224742 15.635135 0.59519823 15.068359 0.82226562 C 14.647093 0.99103741 14.530989 1.1494174 14.390625 1.2871094 A 1.6352742 1.6352742 0 0 0 13.986328 1.2753906 C 13.811898 1.2936776 13.829504 1.2865311 13.785156 1.2832031 C 13.746566 1.2361261 13.788955 1.2750031 13.703125 1.1816406 C 13.468452 0.9264223 12.893508 0.54874066 12.34375 0.484375 C 12.187549 0.46608686 12.038812 0.46381973 11.896484 0.47265625 z M 24.308594 17.958984 L 24.285156 18.148438 L 24.248047 18.164062 C 24.255847 18.088084 24.303464 18.036087 24.308594 17.958984 z "
       transform="matrix(0.26458333,0,0,0.26458333,0,284.56458)"
       id="path833" />
  </g>
</svg>
